<svg xmlns="http://www.w3.org/2000/svg" viewBox="0 0 176.96 32.49"><defs><style>.cls-1{fill:#f39e21;}.cls-2{fill:#067fc2;}</style></defs><title>logo(smartphone)</title><g id="Layer_2" data-name="Layer 2"><g id="Layer_1-2" data-name="Layer 1"><path class="cls-1" d="M65.57,27.93a2.24,2.24,0,0,1,.73,1.85,2.33,2.33,0,0,1-.73,1.9,3.36,3.36,0,0,1-2.22.61H51a2.47,2.47,0,0,1-2.65-2.58,3.73,3.73,0,0,1,1.15-2.65l7.2-7.5c1.49-1.56,2.24-3,2.24-4.31a2.25,2.25,0,0,0-.67-1.76,2.66,2.66,0,0,0-1.88-.61,5.25,5.25,0,0,0-1.81.29,15.68,15.68,0,0,0-1.92.83l-.68.34-.53.29a5,5,0,0,1-.69.32,2,2,0,0,1-.65.1,1.72,1.72,0,0,1-1.42-.76,2.91,2.91,0,0,1-.58-1.82,2.86,2.86,0,0,1,.22-1.22,2.21,2.21,0,0,1,.83-.88,13.77,13.77,0,0,1,7.5-2.31A11,11,0,0,1,61,8.89,6.6,6.6,0,0,1,64,11.27a6.21,6.21,0,0,1,1,3.54,8.52,8.52,0,0,1-.83,3.79,15.85,15.85,0,0,1-2.83,3.81l-4.82,4.92h6.82A3.42,3.42,0,0,1,65.57,27.93Z"/><path class="cls-1" d="M87.68,25.84c0,1.61-1,2.41-3,2.41H84V29.4a3,3,0,0,1-.85,2.31,3.14,3.14,0,0,1-2.21.78,3.09,3.09,0,0,1-2.19-.78,3,3,0,0,1-.83-2.31V28.25H70.34a2.53,2.53,0,0,1-1.93-.75,2.56,2.56,0,0,1-.71-1.86,3.78,3.78,0,0,1,.74-2.24L78.15,9.55a3.05,3.05,0,0,1,1.2-1,3.39,3.39,0,0,1,1.51-.36A3.19,3.19,0,0,1,83.07,9,2.88,2.88,0,0,1,84,11.25V23.5h.74C86.7,23.5,87.68,24.28,87.68,25.84ZM73.84,23.5h4.07V17.63Z"/><path class="cls-1" d="M105.09,17a8.57,8.57,0,0,1,1.43,5.41v7.33a2.62,2.62,0,0,1-.82,2,3.66,3.66,0,0,1-4.41,0,2.64,2.64,0,0,1-.81-2V22.24c0-1.62-.7-2.44-2.11-2.44a2.77,2.77,0,0,0-2.15.87,3.29,3.29,0,0,0-.8,2.32v6.72a2.64,2.64,0,0,1-.81,2,3.67,3.67,0,0,1-4.42,0,2.64,2.64,0,0,1-.81-2V10.91A2.5,2.5,0,0,1,90.23,9a3.21,3.21,0,0,1,2.24-.77,3.13,3.13,0,0,1,2.14.72,2.4,2.4,0,0,1,.81,1.9v6.78a5.83,5.83,0,0,1,2.27-1.79,7.37,7.37,0,0,1,3.06-.61A5.22,5.22,0,0,1,105.09,17Z"/><path class="cls-2" d="M110.09,31.25a3,3,0,0,1,4.3-4.29,3.13,3.13,0,0,1,0,4.29,3.07,3.07,0,0,1-4.3,0Z"/><path class="cls-2" d="M119.32,30.07a7.67,7.67,0,0,1-2.18-5.76,8.32,8.32,0,0,1,1.06-4.24,7.22,7.22,0,0,1,3-2.84,9.35,9.35,0,0,1,4.37-1,10.19,10.19,0,0,1,2.62.34,8.32,8.32,0,0,1,2.31,1,2,2,0,0,1,1,1.8,2.59,2.59,0,0,1-.45,1.58,1.4,1.4,0,0,1-1.17.6,2.73,2.73,0,0,1-.9-.14,5.8,5.8,0,0,1-1-.42c-.41-.18-.76-.32-1.06-.42a3.22,3.22,0,0,0-1-.14q-3.09,0-3.09,3.77a4.42,4.42,0,0,0,.8,2.85,2.75,2.75,0,0,0,2.29,1,3.1,3.1,0,0,0,1-.14,6.08,6.08,0,0,0,1-.42l1-.42a2.63,2.63,0,0,1,.86-.14,1.41,1.41,0,0,1,1.17.61,2.58,2.58,0,0,1,.45,1.57,2.26,2.26,0,0,1-.25,1.08,1.72,1.72,0,0,1-.68.73,9.94,9.94,0,0,1-5.24,1.31A8.16,8.16,0,0,1,119.32,30.07Z"/><path class="cls-2" d="M136.72,31.21a7.18,7.18,0,0,1-3-2.79,8.38,8.38,0,0,1-1-4.24,8.3,8.3,0,0,1,1-4.22,7.09,7.09,0,0,1,3-2.76,10.82,10.82,0,0,1,8.91,0A7,7,0,0,1,148.56,20a8.21,8.21,0,0,1,1.05,4.22,8.28,8.28,0,0,1-1.05,4.24,7.07,7.07,0,0,1-2.94,2.79,10.59,10.59,0,0,1-8.9,0Zm7.4-7c0-2.57-1-3.86-3-3.86s-3,1.29-3,3.86,1,3.87,3,3.87S144.12,26.76,144.12,24.18Z"/><path class="cls-2" d="M175.59,17.75c.92,1,1.37,2.7,1.37,5.09v6.73a2.32,2.32,0,0,1-.79,1.92,3.38,3.38,0,0,1-4,0,2.32,2.32,0,0,1-.79-1.92V22.72A2.71,2.71,0,0,0,171,21a1.62,1.62,0,0,0-1.28-.5,2.15,2.15,0,0,0-1.74.78,3.23,3.23,0,0,0-.66,2.15v6.17a2.37,2.37,0,0,1-.77,1.92,3.41,3.41,0,0,1-4,0,2.32,2.32,0,0,1-.79-1.92V22.72a2.71,2.71,0,0,0-.44-1.75,1.61,1.61,0,0,0-1.28-.5,2.1,2.1,0,0,0-1.72.78,3.28,3.28,0,0,0-.64,2.15v6.17a2.33,2.33,0,0,1-.8,1.92,3.37,3.37,0,0,1-3.95,0,2.33,2.33,0,0,1-.8-1.92V18.79a2.19,2.19,0,0,1,.83-1.85,3.11,3.11,0,0,1,2-.64,2.84,2.84,0,0,1,1.83.58,2.06,2.06,0,0,1,.76,1.66,5.23,5.23,0,0,1,4.67-2.3A4.35,4.35,0,0,1,166.65,19a5.68,5.68,0,0,1,2.09-2,5.93,5.93,0,0,1,3-.73A5,5,0,0,1,175.59,17.75Z"/><path class="cls-2" d="M41.38,16V29a2.87,2.87,0,0,1-1,2.4,4.24,4.24,0,0,1-5,0,2.9,2.9,0,0,1-1-2.4V15.39c0-.15,0-.29,0-.43a5.32,5.32,0,0,0,5.2.71l1,.3a1.61,1.61,0,0,0,.48.08A1.63,1.63,0,0,0,41.38,16Z"/><path class="cls-2" d="M26.71.81A4.52,4.52,0,0,0,23.76,0H3.92A4.52,4.52,0,0,0,1,.81,3.09,3.09,0,0,0,0,3.33,3.17,3.17,0,0,0,1,5.88a4.4,4.4,0,0,0,3,.83H9V28.15a3.89,3.89,0,0,0,1.15,3,3.83,3.83,0,0,0,1.84,1,5.68,5.68,0,0,0,1.2.12,5.58,5.58,0,0,0,1.19-.12,3.78,3.78,0,0,0,3-3.93V6.71h4.08a6.17,6.17,0,0,1,5.8-5.18A2.39,2.39,0,0,0,26.71.81Z"/><path class="cls-2" d="M31.59,12.84V28.51a3.35,3.35,0,0,1-1.15,2.77,4.4,4.4,0,0,1-2.86.92,4.36,4.36,0,0,1-2.86-.92,3.32,3.32,0,0,1-1.15-2.77V13.84h.07a1.65,1.65,0,0,0,.54-.09l1.11-.35a6.14,6.14,0,0,0,6.28-1C31.58,12.52,31.59,12.68,31.59,12.84Z"/><path class="cls-1" d="M27.62,2.52h0a5.16,5.16,0,0,0-5.07,4.19,5.23,5.23,0,0,0-.1,1,5.08,5.08,0,0,0,.8,2.74l-.33,1.47a.78.78,0,0,0,.24.75.81.81,0,0,0,.45.2h.07a.67.67,0,0,0,.24,0l1.47-.47a5,5,0,0,0,2.23.51,5.16,5.16,0,0,0,0-10.32Zm0,9.65a4.33,4.33,0,0,1-4.3-3.79.48.48,0,0,1,.47-.55H31.4a.49.49,0,0,1,.48.55A4.34,4.34,0,0,1,27.58,12.17Z"/><path class="cls-1" d="M41.43,13.07a4.28,4.28,0,0,0,.68-2.35A4.39,4.39,0,0,0,42,9.9a4.44,4.44,0,0,0-4.36-3.61h0a4.44,4.44,0,0,0,0,8.87,4.39,4.39,0,0,0,1.91-.44l1.27.41.2,0h.06a.64.64,0,0,0,.39-.18.63.63,0,0,0,.2-.63Zm-3.77,1.51A3.73,3.73,0,0,1,34,11.27a.37.37,0,0,1,.37-.41H41a.37.37,0,0,1,.37.41A3.72,3.72,0,0,1,37.66,14.58Z"/></g></g></svg>