<svg xmlns="http://www.w3.org/2000/svg" viewBox="0 0 106.11 82.18"><defs><style>.cls-1{fill:#067fc2;}.cls-2{fill:#f39e21;}</style></defs><title>logo(PC and tablet))</title><g id="Layer_2" data-name="Layer 2"><g id="Layer_1-2" data-name="Layer 1"><path class="cls-1" d="M90.21,31.18V56.46a5.61,5.61,0,0,1-1.94,4.68,8.26,8.26,0,0,1-9.66,0,5.64,5.64,0,0,1-1.94-4.68V30a7.63,7.63,0,0,1,0-.84A10.27,10.27,0,0,0,83,31.24a10.07,10.07,0,0,0,3.85-.74l1.87.6a2.86,2.86,0,0,0,.92.15A2.46,2.46,0,0,0,90.21,31.18Z"/><path class="cls-1" d="M61.66,1.58Q59.77,0,55.91,0H17.28q-3.86,0-5.75,1.58A6,6,0,0,0,9.65,6.49a6.17,6.17,0,0,0,1.88,5q1.89,1.62,5.75,1.62h9.94V54.81a7.6,7.6,0,0,0,2.24,5.74,7.49,7.49,0,0,0,3.59,1.91,11.43,11.43,0,0,0,4.66,0,7.49,7.49,0,0,0,3.59-1.91,7.6,7.6,0,0,0,2.24-5.74V13.07h8A12,12,0,0,1,62.79,3,4.79,4.79,0,0,0,61.66,1.58Z"/><path class="cls-1" d="M71.15,25V55.51a6.49,6.49,0,0,1-2.24,5.39,9.52,9.52,0,0,1-11.14,0,6.49,6.49,0,0,1-2.24-5.39V26.94h.14a3.18,3.18,0,0,0,1.06-.17l2.16-.69a11.95,11.95,0,0,0,12.22-2C71.13,24.37,71.15,24.68,71.15,25Z"/><path class="cls-2" d="M63.42,4.9h-.08a10.08,10.08,0,0,0-9.88,8.17A10.6,10.6,0,0,0,53.29,15a9.92,9.92,0,0,0,1.54,5.33l-.63,2.88a1.49,1.49,0,0,0,.45,1.44,1.58,1.58,0,0,0,.88.4h.14a1.47,1.47,0,0,0,.46-.07L59,24A10,10,0,1,0,63.42,4.9Zm-.08,18.79A8.44,8.44,0,0,1,55,16.31a.94.94,0,0,1,.93-1.06H70.78a.94.94,0,0,1,.93,1.06A8.44,8.44,0,0,1,63.34,23.69Z"/><path class="cls-2" d="M90.32,25.46a8.63,8.63,0,0,0,1.17-6.19,8.64,8.64,0,0,0-8.48-7h-.07A8.64,8.64,0,0,0,83,29.51a8.57,8.57,0,0,0,3.72-.84l2.47.78a1.4,1.4,0,0,0,.4.07h.12a1.34,1.34,0,0,0,.75-.33,1.32,1.32,0,0,0,.39-1.25ZM83,28.39a7.26,7.26,0,0,1-7.2-6.45.72.72,0,0,1,.72-.8h13a.72.72,0,0,1,.72.8A7.25,7.25,0,0,1,83,28.39Z"/><path class="cls-2" d="M39.32,79.44a1.36,1.36,0,0,1,.44,1.11,1.4,1.4,0,0,1-.44,1.14,2.07,2.07,0,0,1-1.33.37H30.56a1.56,1.56,0,0,1-1.16-.44A1.54,1.54,0,0,1,29,80.51a2.25,2.25,0,0,1,.69-1.59L34,74.43a4,4,0,0,0,1.34-2.59,1.4,1.4,0,0,0-.39-1.06,1.65,1.65,0,0,0-1.13-.36,3.16,3.16,0,0,0-1.09.17,8,8,0,0,0-1.15.5l-.41.2-.31.17a2.56,2.56,0,0,1-.42.2,1.23,1.23,0,0,1-.39.06,1,1,0,0,1-.85-.46,1.76,1.76,0,0,1-.35-1.09,1.7,1.7,0,0,1,.13-.73,1.38,1.38,0,0,1,.5-.53,8.2,8.2,0,0,1,2.15-1A8.09,8.09,0,0,1,34,67.53a6.41,6.41,0,0,1,2.64.5,3.91,3.91,0,0,1,1.76,1.42A3.7,3.7,0,0,1,39,71.58a5.2,5.2,0,0,1-.49,2.27,9.81,9.81,0,0,1-1.7,2.28l-2.89,3H38A2.07,2.07,0,0,1,39.32,79.44Z"/><path class="cls-2" d="M52.58,78.19q0,1.44-1.77,1.44h-.45v.7a1.77,1.77,0,0,1-.51,1.38,1.89,1.89,0,0,1-1.32.47,1.84,1.84,0,0,1-1.31-.47,1.77,1.77,0,0,1-.5-1.38v-.7H42.18A1.52,1.52,0,0,1,41,79.19a1.58,1.58,0,0,1-.43-1.12A2.3,2.3,0,0,1,41,76.72l5.82-8.3a1.87,1.87,0,0,1,.72-.62,2.09,2.09,0,0,1,.91-.21,1.91,1.91,0,0,1,1.32.49,1.71,1.71,0,0,1,.55,1.36v7.35h.45C52,76.79,52.58,77.25,52.58,78.19Zm-8.3-1.4h2.44V73.27Z"/><path class="cls-2" d="M63,72.87a5.12,5.12,0,0,1,.85,3.24v4.4a1.55,1.55,0,0,1-.49,1.22,2.16,2.16,0,0,1-2.64,0,1.55,1.55,0,0,1-.49-1.22V76c0-1-.42-1.46-1.26-1.46a1.64,1.64,0,0,0-1.29.52,2,2,0,0,0-.48,1.39v4a1.55,1.55,0,0,1-.49,1.22,2.18,2.18,0,0,1-2.65,0,1.58,1.58,0,0,1-.48-1.22V69.24a1.51,1.51,0,0,1,.5-1.17,1.92,1.92,0,0,1,1.35-.46,1.85,1.85,0,0,1,1.28.43,1.41,1.41,0,0,1,.49,1.14v4.06a3.47,3.47,0,0,1,1.36-1.07,4.31,4.31,0,0,1,1.83-.37A3.15,3.15,0,0,1,63,72.87Z"/><path class="cls-1" d="M66,81.44a1.89,1.89,0,0,1,0-2.58,1.75,1.75,0,0,1,1.3-.53,1.72,1.72,0,0,1,1.28.53,1.89,1.89,0,0,1,0,2.58,1.75,1.75,0,0,1-1.28.52A1.78,1.78,0,0,1,66,81.44Z"/><path class="cls-1" d="M71.55,80.73a4.61,4.61,0,0,1-1.31-3.46,4.92,4.92,0,0,1,.64-2.54A4.29,4.29,0,0,1,72.66,73a5.6,5.6,0,0,1,2.63-.6,6.11,6.11,0,0,1,1.57.21,4.78,4.78,0,0,1,1.38.58,1.18,1.18,0,0,1,.58,1.08,1.52,1.52,0,0,1-.27.94.83.83,0,0,1-.7.37,1.71,1.71,0,0,1-.55-.09,3.31,3.31,0,0,1-.57-.25,5.82,5.82,0,0,0-.64-.25,1.76,1.76,0,0,0-.58-.09c-1.23,0-1.85.76-1.85,2.27a2.63,2.63,0,0,0,.48,1.7,1.64,1.64,0,0,0,1.37.59,2.21,2.21,0,0,0,.59-.08,5.28,5.28,0,0,0,.61-.25c.25-.12.45-.2.6-.26a1.72,1.72,0,0,1,.52-.08.85.85,0,0,1,.7.36,1.57,1.57,0,0,1,.27.95,1.37,1.37,0,0,1-.15.64,1,1,0,0,1-.41.44A6,6,0,0,1,75.1,82,4.91,4.91,0,0,1,71.55,80.73Z"/><path class="cls-1" d="M82,81.41a4.26,4.26,0,0,1-1.77-1.67,5,5,0,0,1-.63-2.54,4.93,4.93,0,0,1,.63-2.54A4.28,4.28,0,0,1,82,73a6.44,6.44,0,0,1,5.34,0,4.19,4.19,0,0,1,1.76,1.65,4.93,4.93,0,0,1,.63,2.54,5,5,0,0,1-.63,2.54,4.18,4.18,0,0,1-1.76,1.67,5.77,5.77,0,0,1-2.67.59A5.83,5.83,0,0,1,82,81.41Zm4.44-4.21c0-1.55-.59-2.32-1.77-2.32s-1.78.77-1.78,2.32.59,2.31,1.78,2.31S86.42,78.74,86.42,77.2Z"/><path class="cls-1" d="M105.29,73.34a4.49,4.49,0,0,1,.82,3v4a1.41,1.41,0,0,1-.47,1.15,2.05,2.05,0,0,1-2.38,0,1.41,1.41,0,0,1-.47-1.15V76.32a1.64,1.64,0,0,0-.26-1,1,1,0,0,0-.77-.3,1.32,1.32,0,0,0-1.05.47,2,2,0,0,0-.39,1.29v3.7a1.38,1.38,0,0,1-.47,1.15,1.84,1.84,0,0,1-1.19.38,1.88,1.88,0,0,1-1.19-.38A1.38,1.38,0,0,1,97,80.43V76.32a1.58,1.58,0,0,0-.27-1A1,1,0,0,0,96,75a1.28,1.28,0,0,0-1,.47,2,2,0,0,0-.38,1.29v3.7a1.39,1.39,0,0,1-.48,1.15,2,2,0,0,1-2.37,0,1.39,1.39,0,0,1-.48-1.15V74a1.33,1.33,0,0,1,.5-1.11,1.89,1.89,0,0,1,1.18-.38,1.74,1.74,0,0,1,1.1.34,1.29,1.29,0,0,1,.46,1,3.12,3.12,0,0,1,2.8-1.38,2.61,2.61,0,0,1,2.67,1.63,3.4,3.4,0,0,1,1.25-1.19,3.61,3.61,0,0,1,1.78-.44A3,3,0,0,1,105.29,73.34Z"/><path class="cls-1" d="M24.81,72.3v7.78a1.75,1.75,0,0,1-.6,1.45,2.27,2.27,0,0,1-1.48.48,2.3,2.3,0,0,1-1.49-.48,1.75,1.75,0,0,1-.6-1.45V71.92c0-.09,0-.17,0-.25a3.19,3.19,0,0,0,3.12.42l.57.18a.93.93,0,0,0,.29,0Z"/><path class="cls-1" d="M16,63.18a2.75,2.75,0,0,0-1.77-.49H2.35a2.75,2.75,0,0,0-1.77.49A1.86,1.86,0,0,0,0,64.69a1.89,1.89,0,0,0,.58,1.53,2.69,2.69,0,0,0,1.77.5H5.41V79.57a2.33,2.33,0,0,0,.69,1.77,2.26,2.26,0,0,0,1.11.59,3.24,3.24,0,0,0,1.43,0,2.22,2.22,0,0,0,1.11-.59,2.33,2.33,0,0,0,.69-1.77V66.72h2.45a3.69,3.69,0,0,1,3.48-3.11A1.47,1.47,0,0,0,16,63.18Z"/><path class="cls-1" d="M18.94,70.39v9.4a2,2,0,0,1-.69,1.66,2.64,2.64,0,0,1-1.71.56,2.65,2.65,0,0,1-1.72-.56,2,2,0,0,1-.69-1.66V71h0a1.26,1.26,0,0,0,.33,0l.67-.21a3.7,3.7,0,0,0,3.76-.62A2.62,2.62,0,0,1,18.94,70.39Z"/><path class="cls-2" d="M16.56,64.2h0a3.12,3.12,0,0,0-3,2.52,3.68,3.68,0,0,0-.05.58,3,3,0,0,0,.48,1.64l-.2.89a.46.46,0,0,0,.14.44.47.47,0,0,0,.27.12h0a.39.39,0,0,0,.15,0l.88-.28a3.13,3.13,0,0,0,1.34.3,3.07,3.07,0,0,0,2.23-1,3.1,3.1,0,0,0-2.21-5.24Zm0,5.79A2.6,2.6,0,0,1,14,67.72a.29.29,0,0,1,.28-.33h4.59a.29.29,0,0,1,.28.33A2.59,2.59,0,0,1,16.54,70Z"/><path class="cls-2" d="M24.85,70.53a2.67,2.67,0,0,0,.4-1.41,2.63,2.63,0,0,0,0-.49,2.68,2.68,0,0,0-2.62-2.17h0a2.67,2.67,0,0,0-2.64,2.66,2.66,2.66,0,0,0,3.81,2.4l.76.24a.25.25,0,0,0,.12,0h0a.4.4,0,0,0,.23-.1A.39.39,0,0,0,25,71.3Zm-2.27.91a2.24,2.24,0,0,1-2.22-2,.23.23,0,0,1,.23-.25h4a.22.22,0,0,1,.22.25A2.23,2.23,0,0,1,22.58,71.44Z"/></g></g></svg>