<svg xmlns="http://www.w3.org/2000/svg" xmlns:xlink="http://www.w3.org/1999/xlink" viewBox="0 0 139.61 121.88"><defs><style>.cls-1{fill:none;}.cls-2{clip-path:url(#clip-path);}.cls-3{fill:url(#linear-gradient);}.cls-4{clip-path:url(#clip-path-2);}.cls-5{fill:url(#linear-gradient-2);}.cls-6{clip-path:url(#clip-path-3);}.cls-7{fill:url(#linear-gradient-3);}</style><clipPath id="clip-path"><path class="cls-1" d="M68.27,13.49a2.41,2.41,0,0,0-2.07,1.16l-4.42,7.23a5.26,5.26,0,0,0,0,5.44l4.14,7.28a.2.2,0,0,1-.17.28H57.64a2.56,2.56,0,0,1-2.18-1.24l-2.85-4.79h8.06l-.87-1.53a5.14,5.14,0,0,1-.52-1.21H47.8l1.63,2.74L53.11,35a5.3,5.3,0,0,0,4.53,2.58h8.07a2.94,2.94,0,0,0,2.55-4.38L64.11,26v0a2.54,2.54,0,0,1,0-2.62l4.15-6.79,5.37,8.91a7.21,7.21,0,0,1,2-1.93l-5.33-8.83a2.38,2.38,0,0,0-2.07-1.18Z"/></clipPath><linearGradient id="linear-gradient" x1="1418.45" y1="-109.78" x2="1418.94" y2="-109.78" gradientTransform="matrix(39.39, 0, 0, -39.39, -55815.66, -4298.3)" gradientUnits="userSpaceOnUse"><stop offset="0" stop-color="#f7ad39"/><stop offset="1" stop-color="#c47b2a"/></linearGradient><clipPath id="clip-path-2"><path class="cls-1" d="M49.57,47.44a2.38,2.38,0,0,0,0,2.38h0a2.38,2.38,0,0,0,2,1.21l8.47.22a5.27,5.27,0,0,0,4.73-2.68l4.23-7.23a.2.2,0,0,1,.17-.09.16.16,0,0,1,.16.1l4,7a2.55,2.55,0,0,1,0,2.51l-2.72,4.86-4-7-.89,1.52A5.58,5.58,0,0,1,65,51.31l4.8,8.32.93,1.62,1.56-2.78,3.52-6.28a5.31,5.31,0,0,0,0-5.22l-4-7a2.92,2.92,0,0,0-5.06,0L62.46,47.2v0a2.55,2.55,0,0,1-2.28,1.29l-8-.2,5-9.11a7.17,7.17,0,0,1-2.69-.8Z"/></clipPath><linearGradient id="linear-gradient-2" x1="1506.92" y1="-107.27" x2="1507.41" y2="-107.27" gradientTransform="matrix(0, -50.86, -50.86, 0, -5392.95, 76708.93)" xlink:href="#linear-gradient"/><clipPath id="clip-path-3"><path class="cls-1" d="M86.52,23.84l-7.2.1a5.3,5.3,0,0,0-4.5,2.63l-4,7A2.92,2.92,0,0,0,73.31,38l8.38.06h0A2.54,2.54,0,0,1,84,39.33l3.8,7-10.4.19A7.28,7.28,0,0,1,78,49.25l10.31-.19a2.43,2.43,0,0,0,2.06-1.21h0a2.39,2.39,0,0,0,0-2.37L86.38,38a5.28,5.28,0,0,0-4.69-2.75l-8.37-.06a.18.18,0,0,1-.16-.09.19.19,0,0,1,0-.19l4-7a2.53,2.53,0,0,1,2.16-1.26l5.57-.08-4,7h1.76a5.66,5.66,0,0,1,1.31.15l4.15-7.19,1.59-2.75Z"/></clipPath><linearGradient id="linear-gradient-3" x1="1479.42" y1="-190.47" x2="1479.91" y2="-190.47" gradientTransform="matrix(0, 50.45, 50.45, 0, 9690.46, -74619.87)" xlink:href="#linear-gradient"/></defs><title>jenkit</title><g id="Layer_2" data-name="Layer 2"><g id="Layer_1-2" data-name="Layer 1"><path d="M82.51,84.55v6.39l0,5.14c0,.24,0,.5.25.63s.52,0,.69-.25c.44-.52.86-1,1.3-1.57.68-.82,1.37-1.62,2.06-2.43.33-.38.65-.77,1-1.16.76-.93,1.46-1.92,2.27-2.83.47-.53.86-1.13,1.29-1.69s.73-.93,1.11-1.38a3,3,0,0,1,.46-.41,8.88,8.88,0,0,0,.79-.71,7,7,0,0,1,1.88-1.45,3.11,3.11,0,0,1,2.06-.4,2.13,2.13,0,0,1,1.81,1.73,3.48,3.48,0,0,1-.89,3.45A5.78,5.78,0,0,1,97,88.88a2.38,2.38,0,0,0-.43.3c-1.33,1.18-2.68,2.33-4,3.54-.74.68-1.38,1.46-2.06,2.2-.3.33-.6.65-.88,1a.73.73,0,0,0,.07,1.16l2.67,2.45.14.12A47.81,47.81,0,0,0,97.19,103c.63.34,1.25.69,1.9,1a3.77,3.77,0,0,0,1.2.24c.62,0,1.24,0,1.86,0a1.48,1.48,0,0,1,1.68,2,2,2,0,0,1-.64,1.23,2,2,0,0,0-.24.26,5.18,5.18,0,0,1-5.1,2,5.84,5.84,0,0,1-2.58-1.11c-.62-.41-1.16-.93-1.76-1.35-.84-.6-1.6-1.31-2.38-2-.56-.48-1.11-1-1.63-1.5a34.06,34.06,0,0,0-2.91-2.59c-.19-.14-.33-.34-.51-.49a.73.73,0,0,0-1.1.08c-.48.56-1,1.12-1.4,1.71a2.31,2.31,0,0,0-.35.89,2.39,2.39,0,0,0,0,.8,25.39,25.39,0,0,0,.56,3.58,12,12,0,0,1,.27,1.57,1.41,1.41,0,0,1-.34,1.24,1.82,1.82,0,0,0-.27.35,3,3,0,0,1-2.33,1.44,2.79,2.79,0,0,1-2.22-.86,2.65,2.65,0,0,1-.65-1.87c0-3.4.07-6.8.05-10.2s-.23-6.86-.53-10.28c-.12-1.44-.17-2.89-.21-4.34-.09-2.8-.17-5.61-.22-8.42,0-.88,0-1.77.1-2.66a2.63,2.63,0,0,1,.46-1.5,1.66,1.66,0,0,0,.24-.48,2.62,2.62,0,0,1,.94-1.26,1.78,1.78,0,0,1,2.72.24c.16.2.3.43.47.64a1.81,1.81,0,0,1,.43,1c0,.56.11,1.12.11,1.68,0,2.25,0,4.49-.09,6.74,0,1.27-.09,2.54-.13,3.81Z"/><path d="M51.25,87.69c-.06.83-.1,1.65-.2,2.48-.13,1.08-.28,2.17-.45,3.25-.1.58-.27,1.15-.4,1.72-.17.78-.33,1.57-.5,2.35a.57.57,0,0,0,0,.26c0,.1.08.26.16.28a.5.5,0,0,0,.4,0,1,1,0,0,0,.34-.4c.3-.64.55-1.3.85-1.94.21-.45.46-.89.7-1.33.55-1,1.11-1.94,1.67-2.91.24-.41.47-.82.73-1.22a19.77,19.77,0,0,1,2.59-3.25,6.66,6.66,0,0,1,5-2.13A4.68,4.68,0,0,1,64.94,86c.1.1.22.19.32.3a7.34,7.34,0,0,1,1.41,2.12c.52,1.21.68,2.5,1.09,3.74A6.68,6.68,0,0,1,68,93.63a66,66,0,0,0,.91,6.86,6.07,6.07,0,0,0,.47,1.42,1.28,1.28,0,0,0,1.74.77,5,5,0,0,0,.92-.33,1.51,1.51,0,0,1,1.88,1,2.51,2.51,0,0,1-.57,2.4c-.44.43-.9.84-1.37,1.25a1.11,1.11,0,0,1-.38.22,7.64,7.64,0,0,1-2.39.65,2.52,2.52,0,0,1-1.3-.18c-.21-.1-.45-.14-.67-.24a4,4,0,0,1-2.17-2,12.88,12.88,0,0,1-.79-2.44,32.2,32.2,0,0,1-.74-5.44,35.69,35.69,0,0,0-.63-4.39,7,7,0,0,0-1-2.18,1,1,0,0,0-1.52-.28,9.47,9.47,0,0,0-3.19,3.74,2.3,2.3,0,0,1-.15.32c-1,1.28-1.58,2.76-2.44,4.1a1.79,1.79,0,0,0-.2.39,15.66,15.66,0,0,1-1.33,2.49A1.19,1.19,0,0,0,53,102a8.58,8.58,0,0,1-1.25,2.13,4.14,4.14,0,0,0-.29.55,9.75,9.75,0,0,1-2.07,2.85c-.11.1-.22.2-.34.29a2.93,2.93,0,0,1-3.49.17,3.22,3.22,0,0,1-1.55-3,31.66,31.66,0,0,1,.64-4.66,39.31,39.31,0,0,0,.59-4.83c.07-.8.23-1.59.27-2.38.08-1.83.12-3.67.18-5.5,0-.32,0-.65,0-1a2.24,2.24,0,0,1,.45-1.32c.35-.44.57-1,1-1.38a2.06,2.06,0,0,1,2.11-.56.9.9,0,0,1,.32.13,3.62,3.62,0,0,1,1.66,2.8c0,.47,0,1,0,1.42Z"/><path d="M19.93,98a19,19,0,0,1,.49-4.57c.08-.29.11-.58.18-.87a2.52,2.52,0,0,1,.18-.68,5.36,5.36,0,0,0,.5-1.51,1.08,1.08,0,0,1,.18-.49c.25-.38.37-.81.58-1.19a24,24,0,0,1,1.63-3c.15-.21.3-.44.44-.66a11.74,11.74,0,0,1,3.37-3.47,8.77,8.77,0,0,1,2.27-1.19,10.28,10.28,0,0,1,2.13-.56,4.52,4.52,0,0,1,4,1.57,2.84,2.84,0,0,1,.66,1,6.06,6.06,0,0,0,.28.65,1.33,1.33,0,0,1,.13.33,7.49,7.49,0,0,1,0,3.33,13.26,13.26,0,0,1-.46,1.43c-.3.67-.67,1.32-1,2a3,3,0,0,0-.2.29,13.68,13.68,0,0,1-2.58,3.14c-1,1-2,2-3.07,2.94s-2.22,1.77-3.35,2.62a1.68,1.68,0,0,0-.69,2.31,3.94,3.94,0,0,0,1.69,2,3.16,3.16,0,0,0,1.71.38,7.24,7.24,0,0,0,2.6-.5,6.09,6.09,0,0,0,2-1.07,8,8,0,0,0,2.45-2,14.6,14.6,0,0,0,2.08-2.42,6.92,6.92,0,0,1,1.36-1.5,1,1,0,0,1,1.56.1,2,2,0,0,1,.51,1.11,4.51,4.51,0,0,1-.45,2.75.6.6,0,0,0-.08.16,10.28,10.28,0,0,1-2.45,3.42l-.65.73a4.36,4.36,0,0,1-.35.4,14.79,14.79,0,0,1-5.67,3.53,10.66,10.66,0,0,1-5.95.2,6.73,6.73,0,0,1-3.43-2.25c-.36-.43-.7-.89-1-1.34a2.6,2.6,0,0,1-.24-.47c-.17-.37-.33-.75-.49-1.13a2.14,2.14,0,0,1-.16-.42A17.06,17.06,0,0,1,19.93,98ZM32.29,85.91v-.28A.91.91,0,0,0,31,84.75a4.19,4.19,0,0,0-.86.46,6.83,6.83,0,0,0-1.71,1.64,18.76,18.76,0,0,0-2.24,3.9c-.27.71-.48,1.45-.7,2.19a3.19,3.19,0,0,0-.1.87.43.43,0,0,0,.21.35.54.54,0,0,0,.4-.07,2.64,2.64,0,0,0,.38-.37c.46-.45.91-.93,1.39-1.36A16.2,16.2,0,0,0,31,88.67a1.93,1.93,0,0,1,.22-.28,7.2,7.2,0,0,0,1-2.06A1.23,1.23,0,0,0,32.29,85.91Z"/><path d="M132.91,87c.83,0,1.66,0,2.49,0a20.39,20.39,0,0,1,2.46.3,2.29,2.29,0,0,1,1.64,1.37,1.17,1.17,0,0,1,.08.78,1.21,1.21,0,0,1-.08.25c-.57,1.52-1,2-2.88,2.1-1.24.06-2.48,0-3.72,0-1.48,0-3,.13-4.43.19a1.51,1.51,0,0,0-1.31.79,3.11,3.11,0,0,0-.49,1.32,9,9,0,0,1-.56,2.32,7.21,7.21,0,0,0-.25.94,7.58,7.58,0,0,1-.23.94,13.64,13.64,0,0,0-.69,3,11.09,11.09,0,0,1-.27,1.3,10.45,10.45,0,0,0-.26,3,3.3,3.3,0,0,0,.84,2,1.18,1.18,0,0,0,.75.43,3.21,3.21,0,0,0,2-.22,16,16,0,0,0,3.26-1.93,19.1,19.1,0,0,1,2.09-1.35,1.46,1.46,0,0,1,2,.34,1.57,1.57,0,0,1,.3,2.08,3.15,3.15,0,0,0-.26.56,2.81,2.81,0,0,1-.68,1,21.83,21.83,0,0,1-3.78,3.06,1.7,1.7,0,0,1-.22.15,10.12,10.12,0,0,1-6.69,1.13,4.93,4.93,0,0,1-3.52-2.3.49.49,0,0,0-.1-.15,4.12,4.12,0,0,1-1-2.4,11.66,11.66,0,0,1,0-4.67c.12-.61.21-1.23.34-1.83s.33-1.32.49-2l.21-.86c.17-.66.34-1.32.52-2,0-.2.12-.4.15-.6a15.29,15.29,0,0,1,.69-2.66,2.31,2.31,0,0,0,.09-.87.55.55,0,0,0-.62-.51c-.56,0-1.12,0-1.68,0a4.11,4.11,0,0,1-2.11-.58,2.19,2.19,0,0,1-1-1.08,2.3,2.3,0,0,0-.15-.32c-.51-1-.41-1.55.43-2.58a1.28,1.28,0,0,1,1.11-.45c.89,0,1.77.08,2.66.14.53,0,1,.13,1.58.19a3.15,3.15,0,0,0,.53,0,.86.86,0,0,0,.84-.56,13.38,13.38,0,0,0,1-2.28,3.36,3.36,0,0,1,.24-.67,5.38,5.38,0,0,0,.44-1.53,4.56,4.56,0,0,1,.25-1,11.15,11.15,0,0,0,.57-2,3.12,3.12,0,0,1,.3-.73,3.68,3.68,0,0,0,.28-.45,2.3,2.3,0,0,1,1.48-1.31,1.7,1.7,0,0,1,1.46,0,3.75,3.75,0,0,1,1.67,1.53,2,2,0,0,1,.22.85,4.16,4.16,0,0,1-.28,1.74c-.2.61-.39,1.23-.59,1.85-.08.23-.17.44-.24.67-.14.39-.26.78-.39,1.17l-.42,1.17a2.84,2.84,0,0,0-.17.49.55.55,0,0,0,.45.66,2.8,2.8,0,0,0,.71,0l2.56-.12Z"/><path d="M15.43,89.6c.09,2.33.17,4.22.25,6.11a56.7,56.7,0,0,0,.6,6.63c0,.2.06.41.07.61.09,2.6.41,5.2.3,7.8a29.21,29.21,0,0,1-.37,3.62,16.88,16.88,0,0,1-.76,2.45c-.11.3-.26.59-.39.89a1.79,1.79,0,0,1-.2.39,18,18,0,0,1-1.35,1.65A6.46,6.46,0,0,1,9,121.88c-.53,0-1.06,0-1.59-.07a3.22,3.22,0,0,1-1.27-.38c-.49-.26-1-.48-1.51-.72A14.93,14.93,0,0,1,2.11,119a6.37,6.37,0,0,1-1.74-2,2.74,2.74,0,0,1-.06-2.65A1,1,0,0,1,1.82,114c.52.32,1,.71,1.54,1,.69.4,1.4.76,2.11,1.12a4.71,4.71,0,0,0,.73.31,6.56,6.56,0,0,0,.84.23,4.84,4.84,0,0,0,.53,0,2.82,2.82,0,0,0,2.85-1.55,5.33,5.33,0,0,0,.7-1.81,20.29,20.29,0,0,0,.38-5.55c-.21-3.52-.43-7-.71-10.54-.23-3.07-.57-6.12-.83-9.19a44.85,44.85,0,0,1-.21-4.78,4,4,0,0,1,1.4-3,2.89,2.89,0,0,1,3.61-.08,2.38,2.38,0,0,1,.93,1.84c0,.44,0,.89,0,1.33L15.5,87.2C15.47,88.15,15.44,89.09,15.43,89.6Z"/><path d="M105.82,102.87c.05-1.59.09-3.19.16-4.78,0-.68.11-1.36.2-2a47.42,47.42,0,0,0,.51-7.43c0-.18,0-.35,0-.53a3.31,3.31,0,0,1,.81-2.28,2,2,0,0,1,1.57-.72,3.41,3.41,0,0,1,2,.48,2.05,2.05,0,0,1,1.1,1.53,5.13,5.13,0,0,1,0,1.41c-.19,1.44-.43,2.87-.66,4.3-.06.44-.13.88-.18,1.31l-.51,4.05a3.29,3.29,0,0,0-.08.62,32,32,0,0,0,.16,4.69,9.41,9.41,0,0,1,.13,1.05,15.26,15.26,0,0,0,.73,3.91,3.74,3.74,0,0,1,.18.87,1.64,1.64,0,0,1-.34,1.16,4.1,4.1,0,0,1-1.55,1.29,2.14,2.14,0,0,1-2.34-.29,4,4,0,0,1-1.16-1.53,6.51,6.51,0,0,1-.6-2.74c0-1.44-.12-2.89-.18-4.34Z"/><path d="M112.07,72.52a4.06,4.06,0,0,1,2.36.74,2.27,2.27,0,0,1,.86,2.21,13.44,13.44,0,0,1-.38,2.18,3.56,3.56,0,0,1-1.49,2.41,5.81,5.81,0,0,1-1.82,1,1,1,0,0,1-1-.06,2,2,0,0,1-.83-1c-.17-.4-.39-.79-.58-1.18-.1-.21-.21-.43-.29-.65-.15-.44-.28-.9-.43-1.34a2.16,2.16,0,0,1,.15-1.79,5.38,5.38,0,0,1,1.55-1.79A3.74,3.74,0,0,1,112.07,72.52Z"/><path d="M9.05,72.2a3,3,0,0,1,1.38-2.92A1.75,1.75,0,0,1,11.51,69a6.14,6.14,0,0,1,1.05.12c.78.18,1.54.41,2.3.63a1.17,1.17,0,0,1,.31.17,2.61,2.61,0,0,1,.94,2.59,7.32,7.32,0,0,1-.58,1.38A5.93,5.93,0,0,1,13.12,76a1.21,1.21,0,0,1-.95.08,3.61,3.61,0,0,1-1.62-.87,5.29,5.29,0,0,1-1-1.11A3.57,3.57,0,0,1,9.05,72.2Z"/><g class="cls-2"><rect class="cls-3" x="43.67" y="7.14" width="36.14" height="36.82" transform="matrix(0.61, -0.79, 0.79, 0.61, 3.78, 58.8)"/></g><g class="cls-4"><rect class="cls-5" x="46.95" y="32.62" width="31.98" height="34.42" transform="translate(-7.93 87.55) rotate(-66.39)"/></g><g class="cls-6"><rect class="cls-7" x="67.58" y="21.76" width="25.93" height="29.54" transform="translate(-6.28 19.72) rotate(-13.44)"/></g></g></g></svg>