<svg xmlns="http://www.w3.org/2000/svg" viewBox="0 0 104.17 113.16"><defs><style>.cls-1{fill:#d1d3d4;}.cls-2{fill:#ec8347;}</style></defs><title>kuchen</title><g id="Layer_2" data-name="Layer 2"><g id="Layer_1-2" data-name="Layer 1"><path class="cls-1" d="M14,13.09V17c0,3.57,0,7.14.07,10.7,0,.28,0,.56-.06.84a1.45,1.45,0,0,0,0,.36.45.45,0,0,0,.76.31c.38-.33.73-.71,1.08-1.07.49-.52,1-1.07,1.47-1.57,2.21-2.16,4.26-4.48,6.35-6.76,1.38-1.51,2.84-2.94,4.24-4.42.93-1,1.83-2,2.75-3s1.68-1.87,2.54-2.79c1.07-1.13,2.15-2.25,3.25-3.34a22.8,22.8,0,0,1,2.45-2.27A6.8,6.8,0,0,1,48.94,6.71,6.1,6.1,0,0,1,49.35,8a7.61,7.61,0,0,1-2,6.32,49.74,49.74,0,0,1-3.45,3.66c-1.59,1.55-3.2,3.08-4.78,4.64l-5.6,5.54L28,33.57a3.51,3.51,0,0,0-.33.34.64.64,0,0,0-.06.87,9.17,9.17,0,0,0,.92,1.14c1.12,1.17,2.29,2.31,3.41,3.48s2.43,2.61,3.65,3.91L38,45.83c.73.78,1.47,1.55,2.21,2.32l1.93,2c1.16,1.19,2.35,2.35,3.49,3.56,1.48,1.55,2.94,3.13,4.4,4.71a11.39,11.39,0,0,1,2.3,3.53c.49,1.23.92,3.06.24,4.3-.27.49-.41,1-.73,1.5a6.73,6.73,0,0,1-3.14,2.42,6.36,6.36,0,0,1-3.93.5c-.38-.12-.78-.16-1.15-.31a10.39,10.39,0,0,1-1.49-.75,16,16,0,0,1-3.57-3.21c-1-1.2-2.15-2.34-3.22-3.51l-3.75-4.1L29.1,56.1l-3-3.25c-.89-1-1.77-2-2.69-2.93-1.48-1.56-3-3.08-4.47-4.64-.72-.77-1.35-1.61-2-2.39s-1.45-1.56-2.18-2.34c-.15-.17-.33-.29-.55-.18a.63.63,0,0,0-.34.61q0,8.63.07,17.26c0,1.52.12,3,.13,4.56,0,.85-.07,1.71-.15,2.56a5.57,5.57,0,0,1-.76,1.93A7,7,0,0,1,8,70.68,7.1,7.1,0,0,1,1.39,68a7.26,7.26,0,0,1-.88-1.65A7.15,7.15,0,0,1,.06,63.4c0-.4-.06-.8-.06-1.2L.06,9A6.91,6.91,0,0,1,4.72,3a7.51,7.51,0,0,1,7.59,1.85,5.83,5.83,0,0,1,1.62,3.57v4.67Z"/><path class="cls-1" d="M56.67,39.5c0-4,0-8,0-12,0-2.85,1.06-5.8,3.73-7.17A6.64,6.64,0,0,1,69.94,26c.21,6.49,0,13,.09,19.47,0,2.32-.39,4.67.08,7a10.28,10.28,0,0,0,3.26,6A9.49,9.49,0,0,0,80.59,60a8.39,8.39,0,0,0,6-4.32,11.61,11.61,0,0,0,1-5.33c0-1.9,0-3.78,0-5.69V32.1c0-1,0-2-.07-3A18.68,18.68,0,0,1,88,24.65a6.5,6.5,0,0,1,1.75-3.14,6.55,6.55,0,0,1,10,.93,9,9,0,0,1,1.43,4.89c0,3,0,6,0,8.92,0,1.94,0,3.87.07,5.81,0,.45-.07.9-.07,1.35,0,5.47.38,11-1.6,16.2a15,15,0,0,1-4.8,6.77c-.81.61-1.67,1.15-2.52,1.7a6.84,6.84,0,0,1-.9.53,13.9,13.9,0,0,1-2.23,1c-1.21.35-2.37.78-3.61,1a31.33,31.33,0,0,1-11.75.26c-4.89-.81-9.52-2.82-12.77-6.68-.38-.45-.73-.92-1.06-1.4a18.78,18.78,0,0,1-3.17-10.32c0-4.34,0-8.68,0-13Z"/><path class="cls-1" d="M104.17,99.23c0,4,0,7.91,0,11.87a1.7,1.7,0,0,1-.58,1.44.78.78,0,0,1-.22.15,3.55,3.55,0,0,1-1.65.09,1.2,1.2,0,0,1-.84-.58,14,14,0,0,1-1.7-3.63l-1.6-4.06-3.19-8.12-1.45-3.71a5.16,5.16,0,0,1-.33-.85c0-.17,0-.35-.09-.5-.38-.51-.77.12-.78.5s0,.91,0,1.36q0,9.33,0,18.64c0,.12,0,.25,0,.37a.66.66,0,0,1-.61.61,8.06,8.06,0,0,1-1.1,0,.92.92,0,0,1-.8-.79,2.28,2.28,0,0,1,0-.52V88a2.19,2.19,0,0,1,.64-1.65,1.08,1.08,0,0,1,.75-.33,7.48,7.48,0,0,1,1.16,0,1.92,1.92,0,0,1,1.47,1,24,24,0,0,1,1.55,3.56l1.59,4.07,3.17,8.15.85,2.16c.12.32.2,1.44.73,1.38.22,0,.44-.37.48-.75,0-.15,0-.31,0-.47,0-.65-.07-1.29-.07-1.94v-16c0-.84.38-1.22,1.25-1.23h.47a1,1,0,0,1,.89.89,4.52,4.52,0,0,1,0,.52Z"/><path class="cls-1" d="M68.78,99.46v12.13a4.52,4.52,0,0,1,0,.52.76.76,0,0,1-.78.7H67a.82.82,0,0,1-.81-.68,2.56,2.56,0,0,1-.07-.62c0-3.2,0-6.41,0-9.61a4.6,4.6,0,0,1,.06-.52.79.79,0,0,0-.73-.95,2.29,2.29,0,0,0-.37,0H58.29a1.83,1.83,0,0,0-.47,0,.77.77,0,0,0-.64.77c0,3.41,0,6.83,0,10.24a2.85,2.85,0,0,1-.09.77.74.74,0,0,1-.77.58h-.79a.72.72,0,0,1-.77-.57,2.16,2.16,0,0,1-.09-.62V87.21a1.4,1.4,0,0,1,.24-.89A1.25,1.25,0,0,1,56.14,86a1.08,1.08,0,0,1,1.08,1.22c0,2.92,0,5.85,0,8.77,0,.14,0,.28,0,.42a.75.75,0,0,0,.66.86,3.45,3.45,0,0,0,.72,0l6.62,0c.7,0,1.08-.38,1-1.07a4.41,4.41,0,0,1,0-.52V87.07A1,1,0,0,1,67.1,86a3.24,3.24,0,0,1,1,0,.74.74,0,0,1,.63.73,4.52,4.52,0,0,1,0,.52Z"/><path class="cls-1" d="M32.76,96v8.67a11,11,0,0,1-1.38,4.8,6.84,6.84,0,0,1-8.93,3.12c-3.42-1.6-4.22-5.43-4.47-8.85q-.06-.8-.06-1.59c0-4.85,0-9.7,0-14.54,0-.14,0-.28,0-.42a1.2,1.2,0,0,1,1.31-1.2,2.46,2.46,0,0,1,.67.09.77.77,0,0,1,.56.69,3.65,3.65,0,0,1,0,.47c0,4.88,0,9.77,0,14.65,0,3.12.39,7.58,4.18,8.32l.24,0a4.25,4.25,0,0,0,4.22-2,10.61,10.61,0,0,0,1.08-5.14c0-5.25,0-10.5,0-15.75A1.26,1.26,0,0,1,31.87,86c.71.15.89.35.89,1Z"/><path class="cls-1" d="M2.38,99.43c0-4.08,0-8.15,0-12.23,0-1,.28-1.32,1.48-1.25A1.23,1.23,0,0,1,5,87.28v5.2c0,.86,0,1.74,0,2.59,0,.36-.21,3,.72,2.14A.87.87,0,0,0,5.89,97c.39-.64.79-1.27,1.16-1.92S7.79,93.69,8.18,93c.74-1.26,1.51-2.51,2.25-3.77.46-.78.91-1.57,1.36-2.36A1.76,1.76,0,0,1,14,86a.65.65,0,0,1,.58.7,2.81,2.81,0,0,1-.22.85,5.08,5.08,0,0,1-.48.81c-.72,1.15-1.47,2.29-2.18,3.45s-1.36,2.28-2.05,3.42c-.22.37-.49.72-.72,1.09-.33.55-.65,1.11-1,1.68A1.23,1.23,0,0,0,8,99.17c.19.39.39.78.61,1.16.5.89,1,1.78,1.51,2.68s.94,1.75,1.42,2.62c.33.6.68,1.18,1,1.77.44.77.87,1.55,1.3,2.33.34.61.67,1.23,1,1.83s.07,1.23-.69,1.25c-.32,0-.63,0-.95,0a1,1,0,0,1-.94-.47,6.41,6.41,0,0,1-.38-.62c-.35-.66-.7-1.32-1.06-2l-1.41-2.58c-.5-.92-1-1.83-1.49-2.76-.3-.56-.57-1.15-.85-1.72l-.18-.33c-.31-.58-.64-1.16-.95-1.74,0-.06-.05-.14-.1-.18s-.31-.34-.48-.35-.43.25-.45.5a9.61,9.61,0,0,0,0,1.2c0,.19,0,.38,0,.57,0,3,0,6,0,9a2.09,2.09,0,0,1-.18.85c-.1.21-.31.46-.5.49a5.49,5.49,0,0,1-1.46,0,.59.59,0,0,1-.45-.58,5.62,5.62,0,0,1,0-.58Z"/><path class="cls-2" d="M70.41,6.78a6.92,6.92,0,0,1-5.65,6.49,6.76,6.76,0,0,1-6.2-2.37,6.63,6.63,0,0,1-1.22-2.32,6.73,6.73,0,0,1,1.8-6.72c.17-.15.33-.29.51-.43a6.39,6.39,0,0,1,8.5.4,8.26,8.26,0,0,1,1.61,2.11A5.77,5.77,0,0,1,70.41,6.78Z"/><path class="cls-2" d="M87.32,6.69a6.29,6.29,0,0,1,.16-1.44A7.13,7.13,0,0,1,91,.74a4,4,0,0,1,.77-.31,6,6,0,0,1,5.71.71,6.63,6.63,0,0,1,1,10.27,7.11,7.11,0,0,1-3.37,1.83,6,6,0,0,1-5.39-1.45,15.57,15.57,0,0,1-1.18-1.26A6.28,6.28,0,0,1,87.32,6.69Z"/><path class="cls-1" d="M74,99.39c0-3.72,0-7.45,0-11.18a4,4,0,0,1,.38-1.56A1.06,1.06,0,0,1,75.46,86h8.3c.71,0,.94.23.94.93q0,.63,0,1.26a.78.78,0,0,1-.76.83,4.52,4.52,0,0,1-.52,0H77.54a1.46,1.46,0,0,0-.56.08.83.83,0,0,0-.46.82c0,2,0,4,0,5.93,0,.21,0,.42,0,.63a.78.78,0,0,0,.88.81c1.73,0,3.46,0,5.19,0,.63,0,.86.2,1.06.8a2.15,2.15,0,0,1-.05,1.54.79.79,0,0,1-.9.63H77.61a3,3,0,0,0-.42,0,.75.75,0,0,0-.67.8c0,2.59,0,5.18,0,7.77,0,.67.28.94,1,.94l5.76-.07a4.43,4.43,0,0,1,.52,0c.8.12,1.08.41,1.22,1.21a2,2,0,0,1-.26,1.36.81.81,0,0,1-.76.46H75.44c-.65,0-.86-.21-1.12-.81a4.08,4.08,0,0,1-.3-1.69Q74,104.85,74,99.39Z"/><path class="cls-1" d="M36.88,99.53A21.24,21.24,0,0,1,38,92.24a16.83,16.83,0,0,1,1.08-2.32,9.1,9.1,0,0,1,1-1.49A7,7,0,0,1,46.8,86a6.28,6.28,0,0,1,3.85,2.22,2.57,2.57,0,0,1,.44,2c0,.16-.05.31-.06.47a.57.57,0,0,1-.35.54A.56.56,0,0,1,50.1,91c-.23-.19-.43-.41-.66-.59a6.68,6.68,0,0,0-1.35-1,6.42,6.42,0,0,0-2.33-.7,5.11,5.11,0,0,0-3.94,1.88,9.08,9.08,0,0,0-1.58,3.76,25.08,25.08,0,0,0-.27,9.22,11,11,0,0,0,1.2,3.77,6,6,0,0,0,3,2.59c2.06.75,4.12-.51,5.69-1.7.17-.13.33-.27.5-.39.32-.2.68-.08.71.29a12.43,12.43,0,0,1,0,1.83,1,1,0,0,1-.28.55,6.12,6.12,0,0,1-1.87,1.56,8.41,8.41,0,0,1-3,1,7.3,7.3,0,0,1-2.71-.26,5.56,5.56,0,0,1-2.71-1.69c-.25-.29-.56-.53-.8-.83a11.43,11.43,0,0,1-.65-1,17.77,17.77,0,0,1-2-7.86C36.91,100.8,36.88,100.17,36.88,99.53Z"/><path class="cls-1" d="M23.46,83.94a1.51,1.51,0,0,1-1.62-1.58,1.61,1.61,0,1,1,3.22,0A1.5,1.5,0,0,1,23.46,83.94Z"/><path class="cls-1" d="M27.82,83.94a1.61,1.61,0,0,1-1.68-1.56,1.78,1.78,0,0,1,1.63-1.71,1.75,1.75,0,0,1,1.7,1.86A1.68,1.68,0,0,1,27.82,83.94Z"/></g></g></svg>