<svg xmlns="http://www.w3.org/2000/svg" viewBox="0 0 233.52 100.24"><defs><style>.cls-1{fill:#7ec12c;}.cls-2{fill:#04215d;}</style></defs><title>lacsell</title><g id="Layer_2" data-name="Layer 2"><g id="Layer_1-2" data-name="Layer 1"><path class="cls-1" d="M232.66,14.14a32.09,32.09,0,0,0-3.8-.1l-20.92,0a5.83,5.83,0,0,1-2.18-.38,10.54,10.54,0,0,0-2.39-.25C192.56,11.84,181.85,9.88,171,8.74Q154.24,7,137.4,6.5A445.78,445.78,0,0,0,70.25,9.62q-8.72,1.07-17.38,2.47c-5.48.9-11.23,1.58-16.58,3.09a12.25,12.25,0,0,1-3.41.35H13.83c-1.15,0-2.3,0-3.44,0-.29,0-.77.08-.8-.26s.48-.38.78-.43a19.23,19.23,0,0,0,4.16-1.12,2.52,2.52,0,0,1,.72-.17A11.92,11.92,0,0,0,17.68,13c.84-.3,1.75-.32,2.62-.58C30.82,9.32,42,7.59,52.8,5.82A440.86,440.86,0,0,1,119.68,0a449.59,449.59,0,0,1,67.1,4.4q9.83,1.38,19.59,3.21,5.06.94,10.08,2c2.94.62,6.18,1.85,9.19,1.92a1.19,1.19,0,0,1,.61.19,3.1,3.1,0,0,0,1.78.43,1.31,1.31,0,0,1,.81.16,3.85,3.85,0,0,0,2,.55c.66.06,1.24.4,1.89.48.25,0,.53,0,.5.4S233,14.2,232.66,14.14Z"/><path class="cls-1" d="M131.33,99.84a436.09,436.09,0,0,1-85.65-4.78c-13.81-2.15-27.23-5.68-40.9-8.42a26.65,26.65,0,0,1-3.49-.89,5.83,5.83,0,0,0-.89-.23c-.23,0-.43-.19-.4-.44s.29-.32.51-.27A23.78,23.78,0,0,0,5.05,85c5.71,0,11.41,0,17.11,0,3.32,0,6.82,1.12,10.08,1.72q5.49,1,11,1.9,11,1.75,22.13,2.94A442.71,442.71,0,0,0,110,94,440.19,440.19,0,0,0,155,92c14.88-1.42,29.38-4.5,44.13-6.53a10.71,10.71,0,0,1,1.26-.11,1.41,1.41,0,0,0,.46,0,10,10,0,0,1,3.77-.33h17.94a7,7,0,0,0,1.94-.11h0c1.19-.33-.05.57-.35.73a15.85,15.85,0,0,1-3.38.79L214.05,88c-5.22,1.23-10.45,2.67-15.7,3.73q-10.74,2.16-21.6,3.78a433.78,433.78,0,0,1-43.63,4.25Z"/><path class="cls-2" d="M80.09,78.15c-.8,0-1.61-.05-2.41,0-1.43.09-2.13-.69-2.42-2.06-.41-1.9-.93-3.78-1.24-5.69-.25-1.53-.84-3-1-4.53-.07-.74-.45-1.41-.55-2.15a.68.68,0,0,0-.74-.58H51.41c-.16,0-.31,0-.47,0a1.44,1.44,0,0,0-1.6,1c-.8,1.88-1.69,3.71-2.58,5.53-.56,1.13-1.06,2.29-1.59,3.43a33.42,33.42,0,0,1-1.55,3.25,3.2,3.2,0,0,1-3.1,1.77,31,31,0,0,0-5,0c-.45,0-.59-.11-.43-.53a11.32,11.32,0,0,1,.54-1.18C44.71,58.82,53.25,40.84,62,23a1,1,0,0,1,1.11-.62c2,0,4,0,5.95,0,1,0,1.12.1,1.35,1.11,2.27,9.75,4.65,19.48,7,29.2Q79.24,60,81.06,67.4c.6,2.46,1.21,4.92,1.81,7.38.28,1.16,1.54,3.48-.45,3.38-.78,0-1.55,0-2.33,0ZM61.79,57.51v0h5.95c.84,0,1.67,0,2.51,0,1.47,0,.58-1.9.4-2.72q-.57-2.71-1.16-5.41c-.3-1.42-4.16-19.25-4.24-19.22-.68.2-.85,1.42-1.13,2-.62,1.31-1.1,2.67-1.75,4s-1.3,2.86-2,4.27c-.29.57-.55,1.17-.82,1.76-.54,1.2-1,2.43-1.63,3.6-.66,1.33-1.26,2.68-1.88,4-.52,1.14-1,2.31-1.58,3.43a35.51,35.51,0,0,1-1.67,3.39c-.34.52,0,.94.65.91.28,0,.56,0,.83,0Z"/><path class="cls-2" d="M85.21,54.58a32.1,32.1,0,0,1,.12-3.42,36,36,0,0,1,4.82-14.78A41.71,41.71,0,0,1,94.73,30a24.82,24.82,0,0,1,7.18-5.24,26.93,26.93,0,0,1,18.83-2.2,21.06,21.06,0,0,1,5.35,2,20.15,20.15,0,0,1,4.52,3.82,1,1,0,0,1,.1,1.47c-.62.76-1.27,1.52-1.87,2.3a3.61,3.61,0,0,1-.81.75,1.7,1.7,0,0,1-2.35,0,18.76,18.76,0,0,0-2.64-2,18.08,18.08,0,0,0-3.5-1.52,18.59,18.59,0,0,0-7.41-.8c-8.81.87-15,7.91-17.56,16-.21.64-.39,1.29-.55,1.94-1.58,6.43-1.14,14.63,2.88,20.12A12.94,12.94,0,0,0,100.57,70a14.25,14.25,0,0,0,4.05,1.77,14.85,14.85,0,0,0,4.5.4,23.3,23.3,0,0,0,5.72-1,20.82,20.82,0,0,0,3.59-1.64,19.34,19.34,0,0,0,2.23-1.64c.37-.28.71-.6,1.09-.85a1.51,1.51,0,0,1,2.21.36l1.9,2.28c.51.61.49.95-.07,1.48a27.94,27.94,0,0,1-4.5,3.7,29.39,29.39,0,0,1-3.32,1.8,27.28,27.28,0,0,1-14,2,15.07,15.07,0,0,1-5.13-1.19A23,23,0,0,1,95.57,76C88.59,71.78,85.38,62.7,85.21,54.58Z"/><path class="cls-2" d="M180.26,73.18a13.24,13.24,0,0,0,8.17-3.11c.71-.54,1.41-1.1,2.13-1.63a2.33,2.33,0,0,1,2.81.26c.57.53.95,1.23,1.56,1.71a.48.48,0,0,1,.1.67,3.36,3.36,0,0,1-.52.66,30.36,30.36,0,0,1-5.57,4.41c-5.39,3-13,3.94-18.45.54a13.45,13.45,0,0,1-4.13-4.06,14,14,0,0,1-1.56-3.53A24.88,24.88,0,0,1,165,54.26,25.74,25.74,0,0,1,166.78,50a29.09,29.09,0,0,1,2.27-3.7,19.25,19.25,0,0,1,4.06-4.15,17.34,17.34,0,0,1,2.39-1.58c4.54-2.35,10-3.19,14.8-1.21a10,10,0,0,1,4.26,3.3A7.93,7.93,0,0,1,196,48.87a9.46,9.46,0,0,1-4.1,6.68,21.18,21.18,0,0,1-5.73,2.59,57.58,57.58,0,0,1-13.92,2.72c-1.17.08-1.36.3-1.39,1.48a17.93,17.93,0,0,0,.36,4.07,7.62,7.62,0,0,0,2.92,4.74,10.86,10.86,0,0,0,5.6,2Zm9.33-25.49A3.67,3.67,0,0,0,188.47,45a4.67,4.67,0,0,0-2.92-1.43,11.2,11.2,0,0,0-4.32.22,10.37,10.37,0,0,0-3.6,1.85,16.25,16.25,0,0,0-4.26,5.41,29.16,29.16,0,0,0-1.28,3.17,5.62,5.62,0,0,0-.28,1.07c-.08.51.1.73.58.69a20.64,20.64,0,0,0,3-.33c1.69-.38,3.41-.58,5.09-1,.86-.22,1.71-.49,2.57-.73a13.72,13.72,0,0,0,4.4-2.05A5.06,5.06,0,0,0,189.59,47.69Z"/><path class="cls-2" d="M15.2,78.15H1.45c-.92,0-1-.17-1-1.09.12-4,1-8,1.46-12Q3.15,54.9,4.39,44.7C5.18,38.17,6.31,31.6,6.79,25a15.21,15.21,0,0,1,.29-1.64c.17-1,.22-1,1.26-1h5.21c.21,0,.43,0,.65,0,.63,0,.75.19.65.81C12.31,38,11.17,53,9.26,67.87c-.11.91-.23,1.81-.35,2.71s-.06,1.15,1,1.15H29.39c1.28,0,1.42.14,1.14,1.4a22.08,22.08,0,0,0-.49,4c0,.86-.17,1-1.08,1Z"/><path class="cls-2" d="M223,78.21c-.93,0-1.85,0-2.78,0-1.6,0-.22-5.6-.1-6.63l1.06-8.76q1.25-10.32,2.47-20.64c.78-6.71,1.83-13.46,2.37-20.19.07-.93.21-1.08,1.13-1.09,1.89,0,3.77,0,5.66,0,1.13,0,.63.93.47,1.62a40,40,0,0,0-.54,4.08c-1.6,13.52-3.15,27.05-4.83,40.56-.41,3.34-1.05,6.72-1.21,10.08,0,.87-.2,1-1.1,1Z"/><path class="cls-2" d="M205.21,78.14c-.93,0-1.86,0-2.79,0-.71,0-.86-.23-.77-.93,1.9-15.1,3.66-30.22,5.48-45.33.4-3.31.86-6.62,1.18-9.93.09-.84.25-1,1.09-1.05,1.86,0,3.72,0,5.58,0,.65,0,.81.19.77.87-.24,3.61-1,7.3-1.43,10.91l-1.39,11.5-2.78,23c-.42,3.45-1,6.89-1.26,10.34,0,.54-.26.67-.8.67h-2.88Z"/><path class="cls-1" d="M108.54,49a4.67,4.67,0,0,1,1.55-2.77,8.15,8.15,0,0,1,3.31-1.69,6.27,6.27,0,0,0,1.91-.71,1.67,1.67,0,0,0,.8-1.74,3.84,3.84,0,0,0-.81-1.17,1.16,1.16,0,0,1-.21-1.32,1.14,1.14,0,0,1,1.23-.26,2.69,2.69,0,0,1,1.91,3,4.88,4.88,0,0,1-2.53,3.23,3.73,3.73,0,0,1-.74.31,9.44,9.44,0,0,0-2.81.9A3.18,3.18,0,0,0,111,49.24a8.08,8.08,0,0,0,.23,2.19c.12.58,0,1-.71.71a3.89,3.89,0,0,1-1.91-2.59A1.64,1.64,0,0,1,108.54,49Z"/><path class="cls-1" d="M117.36,55.28a2.82,2.82,0,0,1-.32,1.24c-.65,1.26-2.24,1.69-3.45,2.23a7.15,7.15,0,0,0-1.77.94,1.75,1.75,0,0,0-.6,1c-.09.45.12.69.27,1.08a.75.75,0,0,1-.19.94c-.3.17-.58,0-.84-.2a3.42,3.42,0,0,1-1.17-1.28,2.34,2.34,0,0,1,.58-1.93,5.54,5.54,0,0,1,1.72-1.35,17.29,17.29,0,0,0,1.9-1.13,2.55,2.55,0,0,0,.75-.82,2.94,2.94,0,0,0,.14-1.74c-.08-.54-.37-1.84.14-2.23s1.12.41,1.4.63a3.85,3.85,0,0,1,1.31,1.75v0A3,3,0,0,1,117.36,55.28Z"/><path class="cls-1" d="M112.22,40.08v-2a4,4,0,0,0-.49-2.52,1.76,1.76,0,0,1,.59-2.43,1.79,1.79,0,0,1,2.15.33,1.77,1.77,0,0,1,.42,1.5c-.1.59-.64,1-.67,1.59-.1,2.12-.31,4.24-.36,6.36a.61.61,0,0,1-.39.61,5.28,5.28,0,0,0-.55.37c-.18.13-.29.25-.51.11s-.2-.75-.2-1.09c0-.57,0-1.15,0-1.72Z"/><path class="cls-1" d="M112.25,52.07v-.13c0-1.17-.11-2.42,0-3.58,0-.36.69-1,1-1,.53.11.34.64.32,1,0,.65,0,1.31-.07,2l-.15,3.86a5.86,5.86,0,0,1-.14,1.32c-.07.26-.3.79-.65.72s-.31-.34-.31-.59C112.24,54.49,112.25,53.28,112.25,52.07Z"/><path class="cls-1" d="M110.94,40.43a2,2,0,0,1-1.33,1.67,1.42,1.42,0,0,1-1.8-.49.81.81,0,0,1-.21-.59.5.5,0,0,1,.32-.51.44.44,0,0,1,.51.11c.1.11.18.28.31.33a.52.52,0,0,0,.7-.26c.11-.27-.12-.37-.34-.44s-.49,0-.46-.31.26-.33.48-.38.49-.07.72-.14c.84-.25,1-.14,1.1.73A2.62,2.62,0,0,1,110.94,40.43Z"/><path class="cls-1" d="M112.23,64V62.29a6.89,6.89,0,0,1,.09-1.64.44.44,0,0,1,.06-.16.33.33,0,0,1,.3-.09c.41,0,.32.73.32,1,0,.57,0,1.15,0,1.73,0,.85-.06,1.7-.12,2.56,0,.36,0,.72,0,1.09,0,.21,0,.5-.27.51s-.29-.34-.29-.56c0-.93,0-1.86,0-2.79Z"/><path class="cls-1" d="M114.46,63.85c0,.2,0,.41-.19.5s-.35,0-.46-.21a1.39,1.39,0,0,1-.26-.76c0-.15,0-.43.18-.5a.3.3,0,0,1,.21,0A1,1,0,0,1,114.46,63.85Z"/><path class="cls-2" d="M159.55,42a13.22,13.22,0,0,0-5.36-3.17c-1.68-.5-3.39-1.07-4.9-.81a11.41,11.41,0,0,0-3.62.28,29,29,0,0,0-3.09,1,17.51,17.51,0,0,0-3.24,1.92c-3.87,2.95-6.48,8.88-4.35,13.57A8.49,8.49,0,0,0,137.54,58a14,14,0,0,0,3.78,1.89,43.1,43.1,0,0,1,5.45,2.47c1.58.89,3.56,1.87,3.74,3.89a6.48,6.48,0,0,1-3.88,6.66,10.52,10.52,0,0,1-11-1.7,4.7,4.7,0,0,0-1.3-.87c-.83-.34-1.56,0-2.25.84s-1.12,1.55-1.63,2.35-.46.66.08,1.25c.15.15.31.3.48.44a15.64,15.64,0,0,0,3.45,2.28,13.18,13.18,0,0,0,3.19,1.18l1.82.34a8,8,0,0,0,2.58.19,28.39,28.39,0,0,0,5.54-1.07,16.48,16.48,0,0,0,3.55-1.74,12.93,12.93,0,0,0,5.58-7.49,11.77,11.77,0,0,0,.37-5.85,8.62,8.62,0,0,0-3.53-5,20.15,20.15,0,0,0-5.71-2.72,20.59,20.59,0,0,1-4.76-2.2,3.87,3.87,0,0,1-1.88-2.2,5.05,5.05,0,0,1,1.27-5,7.51,7.51,0,0,1,4.47-2.21,10.4,10.4,0,0,1,6.15.81,17.66,17.66,0,0,1,2.59,1.44c1.11.79,1.75.31,2.4-.45a25.83,25.83,0,0,0,1.63-2.35C160,42.7,159.93,42.4,159.55,42Z"/></g></g></svg>