<svg xmlns="http://www.w3.org/2000/svg" viewBox="0 0 304.66 95.19"><defs><style>.cls-1{fill:#e5252e;}</style></defs><title>lotte</title><g id="Layer_2" data-name="Layer 2"><g id="Layer_1-2" data-name="Layer 1"><path class="cls-1" d="M67.71,8.73C56-2.92,39.09-2.91,27.33,8.74Q17.63,18.38,8,28.09A27.78,27.78,0,0,0,7.94,67q9.93,10,19.88,19.9a27.59,27.59,0,0,0,38.55.82c7.33-6.86,14.35-14.06,21.32-21.29A26,26,0,0,0,95,47.76a26.87,26.87,0,0,0-8.17-19.85C80.46,21.53,74.12,15.09,67.71,8.73Zm9.06,59.05c0-.29-.07-.56-.45-.61h0C76.7,67.22,76.76,67.49,76.77,67.78Zm-2.67-2h0l-.42-.18ZM42.72,70.82l.11-.07c-7.38-11.64-9.2-24.57-8.76-38a23,23,0,0,1,1.62-7.58c2-5.09,6-8,11.06-7.93s9,2.89,11,8.06c2.59,7,2,14.18.87,21.32a48.48,48.48,0,0,1-5.45,15.83c-.89,1.59-2,2.92-4,1.89s-1.65-2.8-.71-4.51A46.3,46.3,0,0,0,53.72,31a13.15,13.15,0,0,0-2-5.64,6,6,0,0,0-10-.24,14.32,14.32,0,0,0-2.38,7.83c-.53,10.51.9,20.7,5.3,30.36a21.52,21.52,0,0,0,1.62,2.83c4.27,6.45,9.31,7.09,15.06,2a28.28,28.28,0,0,0,4.87-5.72c1.07-1.63,2.42-2.52,4.17-1.35s1.24,2.86.22,4.39a31.15,31.15,0,0,1-8.25,8.68c-6,4.16-12.32,3.64-17.56-1.43-.65-.63-1.32-1.24-2-1.87h0Zm-5.55,5.57a2.7,2.7,0,0,1-3.45-.48,2.65,2.65,0,0,1-.54-3.42A2.85,2.85,0,0,1,36.57,71a8.15,8.15,0,0,1,1.38.56h0l.18-.16L38,71.6A9,9,0,0,1,38.54,73,2.78,2.78,0,0,1,37.17,76.39ZM61.56,51.45h0c-.05-.14-.07-.36-.17-.4C61.49,51.09,61.51,51.31,61.56,51.45Zm9,23.11c-.06-.14-.08-.36-.18-.4.1,0,.12.26.18.4ZM74.3,61.64h0Zm.33-.14a1.37,1.37,0,0,0-.15-.38,1.37,1.37,0,0,1,.15.38Z"/><path class="cls-1" d="M184.37,34.43c-8.22-5.89-17.24-6-26.13-1.65-9.87,4.89-12.24,18.25-5,26.6,4.33,5,10.11,6.53,17,6.79a26.13,26.13,0,0,0,8.54-1.42c6.46-2.35,10.8-6.71,11.93-13.62C191.79,44.44,190,38.44,184.37,34.43Zm-7.54,24.65a9.15,9.15,0,0,1-13.93-.37,15.42,15.42,0,0,1-3.77-10.64,15.7,15.7,0,0,1,3.57-10.46,9.27,9.27,0,0,1,14.48-.19C182.34,43.13,182.17,53.7,176.83,59.08Z"/><path class="cls-1" d="M302,60.5c-5.27,0-10.53,0-15.8,0-1.93,0-2.76-.83-2.75-2.7,0-2.17.1-4.35,0-6.52-.12-1.94.72-2.41,2.51-2.38,5.43.09,10.87,0,16.31.07,1.59,0,2-.55,2-2s-.23-2.15-1.91-2.11c-4.26.11-8.53,0-12.8,0-6.16,0-6.08,0-6.08-6.24,0-2.38.9-3.29,3.26-3.25,5.19.1,10.38,0,15.56.07,1.61,0,2.38-.26,2.41-2.15,0-2.07-1-2.05-2.5-2-4,0-8,0-12,0s-7.86,0-11.79,0c-3.66,0-5,1.35-5,5q0,11.54,0,23.08c0,3.93,1.34,5.31,5.24,5.32,7.86,0,15.72,0,23.58,0,1.51,0,2.45-.06,2.5-2.06C304.7,60.48,303.58,60.48,302,60.5Z"/><path class="cls-1" d="M225.76,31.3h-15c-5.35,0-10.7.06-16.05,0-1.63,0-2.15.46-2.17,2.12s.7,2.12,2.24,2.07c2.76-.09,5.52,0,8.28,0,3.33,0,3.33,0,3.33,3.23,0,7.94,0,15.88,0,23.82,0,1.71.46,2.4,2.24,2.26a34.62,34.62,0,0,1,5.76,0c2.2.22,2.63-.72,2.6-2.71-.1-8.11,0-16.22-.09-24.33,0-1.75.55-2.38,2.3-2.29,2.25.12,4.51,0,6.77,0,1.56,0,2.65,0,2.66-2.15C228.56,30.93,227.15,31.3,225.76,31.3Z"/><path class="cls-1" d="M265.77,31.27c-5.27.1-10.54,0-15.81,0-5.11,0-10.21,0-15.32,0-1.55,0-2.66-.06-2.66,2.15s1.39,2,2.79,2h5.52c3.31,0,3.32,0,3.32,3.19,0,8,0,15.9,0,23.85,0,1.74.48,2.4,2.26,2.27a32.7,32.7,0,0,1,5.51,0c2.17.21,2.89-.44,2.85-2.73-.15-7.95,0-15.9-.13-23.85,0-2.28.69-2.89,2.86-2.76,2.91.17,5.85,0,8.78.06,1.58.06,2.23-.36,2.21-2.07S267.44,31.23,265.77,31.27Z"/><path class="cls-1" d="M146,60.5c-4.6.07-9.2,0-13.81,0-3,0-3.41-.44-3.42-3.54,0-5.94.06-11.88,0-17.81,0-2.56,1.17-6-.56-7.41s-5-.33-7.55-.47c-1.52-.09-2,.43-2,2,.09,4.43,0,8.86,0,13.3s0,8.7,0,13c0,3.69,1.32,5.05,5,5.07,7.44,0,14.89,0,22.33,0,1.57,0,2.22-.37,2.23-2.09S147.58,60.47,146,60.5Z"/></g></g></svg>