<svg xmlns="http://www.w3.org/2000/svg" viewBox="0 0 298.08 90.42"><defs><style>.cls-1{fill:#68ba6b;}.cls-2{fill:#0d6aaf;}</style></defs><title>pureclé</title><g id="Layer_2" data-name="Layer 2"><g id="Layer_1-2" data-name="Layer 1"><path class="cls-1" d="M296.24,17a11.23,11.23,0,0,1-1.92,2.75A17.19,17.19,0,0,1,283,24.84a6.7,6.7,0,0,0-2.28.55,3.24,3.24,0,0,1-2.69,0l-.38-.22,0,0,.15-.26.07-.12a10.1,10.1,0,0,1,1.24-1.74,3.13,3.13,0,0,1,.31-.33v0a28.59,28.59,0,0,1,5.95-4.4,31.73,31.73,0,0,0,6-4.94c3.44-4.27,4.41-8,3.89-12-.11,2.1.83,10.58-12.07,17.33a19.83,19.83,0,0,0-2.45,1.5,10.39,10.39,0,0,0,.9-6A7.84,7.84,0,0,0,281,12.2a8.38,8.38,0,0,0-.66-1.17c5-3.85,13.54-6.58,14.91-11a16.9,16.9,0,0,1,.95,17"/><path class="cls-1" d="M272.4,7.13c1.76,2.49-.84,8.48-.06,12.09A5.35,5.35,0,0,0,277,23.68a7.87,7.87,0,0,1-.38-4.71c1.44-8.09-2.68-10.6-3.58-11.37,2,1.14,3.28,2.86,4,5.88a18.17,18.17,0,0,1,.13,4.39c-.18,2-.49,3.9.4,5.82h0l.23-.1a1.83,1.83,0,0,0,.92-1.21,3.89,3.89,0,0,1,.53-1.21,9.73,9.73,0,0,0,1.64-6.8,6.76,6.76,0,0,0-.58-1.8,9.53,9.53,0,0,0-7.93-5.45"/><path class="cls-2" d="M243.22,89.75a13.28,13.28,0,0,1-8.72-3,9.45,9.45,0,0,1-3.7-7.49V17.89c0-.95.36-3.18,3.62-3.18h5.69c3.26,0,3.62,2.23,3.62,3.18V76.58a1.76,1.76,0,0,0,.72,1.4,3.34,3.34,0,0,0,2.28.69h1.76a2.35,2.35,0,0,1,2.67,2.4v5.49c0,1-.35,3.19-3.62,3.19Z"/><path class="cls-2" d="M69.77,90.42a18.84,18.84,0,0,1-6.51-1.13,17.36,17.36,0,0,1-5.33-3.05,15.65,15.65,0,0,1-3.63-4.51A12,12,0,0,1,52.9,76V34.73c0-1,.35-3.19,3.62-3.19H62.2c3.26,0,3.62,2.23,3.62,3.19V73.89a4.82,4.82,0,0,0,1.86,3.8,7.28,7.28,0,0,0,4.93,1.65,7.35,7.35,0,0,0,4.88-1.66,4.75,4.75,0,0,0,1.92-3.79V34.73c0-1,.35-3.19,3.62-3.19h5.68c3.26,0,3.62,2.23,3.62,3.19V86.56c0,1-.36,3.19-3.62,3.19H85.05a3.29,3.29,0,0,1-3.59-2.62l-.17-.89a14.72,14.72,0,0,1-4.06,2.63A18.06,18.06,0,0,1,69.77,90.42Z"/><path class="cls-2" d="M3.62,89.75C.35,89.75,0,87.52,0,86.56V17.89c0-.95.35-3.18,3.62-3.18H22a28.84,28.84,0,0,1,9,1.34,23.4,23.4,0,0,1,7.22,3.83,17.12,17.12,0,0,1,6.62,13.84V48.3a17.16,17.16,0,0,1-6.62,13.84A23.17,23.17,0,0,1,31,66a28.79,28.79,0,0,1-9,1.35H13.33V86.56c0,1-.36,3.19-3.62,3.19ZM22,55.89a10.28,10.28,0,0,0,7-2.27,6.74,6.74,0,0,0,2.54-5.32V33.72A6.77,6.77,0,0,0,29,28.39a10.33,10.33,0,0,0-7-2.26H13.33V55.89Z"/><path class="cls-2" d="M104,89.75c-3.26,0-3.62-2.23-3.62-3.19V34.73c0-1,.36-3.19,3.62-3.19h3.93c2,0,3.35,1,3.6,2.81l.38,3.34a16.24,16.24,0,0,1,4.8-3.9,21.17,21.17,0,0,1,8.89-2.13l.36,0a3.33,3.33,0,0,1,2.18.76,3,3,0,0,1,1.12,2.33v6.73a1.85,1.85,0,0,1-2,1.95h-1.09c-4,0-7.18.89-9.51,2.64a8.68,8.68,0,0,0-3.37,7.41v33.1c0,1-.35,3.19-3.62,3.19Z"/><path class="cls-2" d="M203.44,90.31A22.23,22.23,0,0,1,196,89.07a20.08,20.08,0,0,1-6.14-3.44,16.37,16.37,0,0,1-4.18-5.15,13.74,13.74,0,0,1-1.54-6.37v-27a14.18,14.18,0,0,1,1.53-6.42,16.33,16.33,0,0,1,4.19-5.22A20.18,20.18,0,0,1,196,32a23,23,0,0,1,14.9,0A20.3,20.3,0,0,1,217,35.43a16.27,16.27,0,0,1,4.18,5.22,14.06,14.06,0,0,1,1.54,6.42v3c0,.95-.36,3.18-3.62,3.18h-5.68c-3.27,0-3.62-2.23-3.62-3.18v-3a4.63,4.63,0,0,0-1.8-3.64,7.38,7.38,0,0,0-9.18,0,4.63,4.63,0,0,0-1.8,3.64v27a4.45,4.45,0,0,0,1.78,3.57,7.62,7.62,0,0,0,9.21,0,4.48,4.48,0,0,0,1.79-3.57V71.19c0-1,.35-3.18,3.62-3.18h5.68c3.26,0,3.62,2.23,3.62,3.18v2.92a13.74,13.74,0,0,1-1.54,6.37A16.48,16.48,0,0,1,217,85.63a20.2,20.2,0,0,1-6.14,3.44A22.23,22.23,0,0,1,203.44,90.31Z"/><path class="cls-2" d="M156.76,90.42a22.75,22.75,0,0,1-7.51-1.24A19.79,19.79,0,0,1,143,85.74a16.37,16.37,0,0,1-4.18-5.15,13.71,13.71,0,0,1-1.54-6.37V47.07a13.71,13.71,0,0,1,1.54-6.37A16.63,16.63,0,0,1,143,35.54a20.08,20.08,0,0,1,6.21-3.43,22.75,22.75,0,0,1,7.51-1.24,22.29,22.29,0,0,1,7.46,1.24,20.24,20.24,0,0,1,6.13,3.43,16.78,16.78,0,0,1,4.19,5.16,13.73,13.73,0,0,1,1.53,6.37V60.53c0,1-.35,3.19-3.62,3.19H150.24v10.5a4.4,4.4,0,0,0,1.84,3.56,7.18,7.18,0,0,0,4.68,1.56,7,7,0,0,0,4.61-1.55,4.45,4.45,0,0,0,1.78-3.57V71.87c0-1,.36-3.19,3.62-3.19h5.68c3.27,0,3.62,2.23,3.62,3.19v2.35a13.77,13.77,0,0,1-1.53,6.38,16.74,16.74,0,0,1-4.19,5.15,20.13,20.13,0,0,1-6.13,3.43A22.29,22.29,0,0,1,156.76,90.42ZM163.15,54V47.07a4.45,4.45,0,0,0-1.78-3.57A6.9,6.9,0,0,0,156.76,42a7.18,7.18,0,0,0-4.68,1.56,4.4,4.4,0,0,0-1.84,3.56V54Z"/><path class="cls-2" d="M278.67,90.42a22.77,22.77,0,0,1-7.52-1.24,19.9,19.9,0,0,1-6.21-3.44,16.51,16.51,0,0,1-4.18-5.15,13.71,13.71,0,0,1-1.54-6.37V47.07a13.71,13.71,0,0,1,1.54-6.37,16.52,16.52,0,0,1,4.18-5.16,20.08,20.08,0,0,1,6.21-3.43,22.81,22.81,0,0,1,7.52-1.24,22.27,22.27,0,0,1,7.45,1.24,20.13,20.13,0,0,1,6.13,3.43,16.74,16.74,0,0,1,4.19,5.15A13.77,13.77,0,0,1,298,47.07V60.53c0,1-.35,3.19-3.62,3.19H272.14v10.5A4.4,4.4,0,0,0,274,77.78a7.19,7.19,0,0,0,4.69,1.56,6.94,6.94,0,0,0,4.6-1.55,4.45,4.45,0,0,0,1.78-3.57V71.87c0-1,.36-3.19,3.62-3.19h5.68c3.27,0,3.62,2.23,3.62,3.19v2.35a13.77,13.77,0,0,1-1.53,6.38,16.74,16.74,0,0,1-4.19,5.15,20.13,20.13,0,0,1-6.13,3.43A22.27,22.27,0,0,1,278.67,90.42ZM285.05,54V47.07a4.45,4.45,0,0,0-1.78-3.57,6.89,6.89,0,0,0-4.6-1.55A7.19,7.19,0,0,0,274,43.51a4.4,4.4,0,0,0-1.84,3.56V54Z"/></g></g></svg>