<svg xmlns="http://www.w3.org/2000/svg" viewBox="0 0 300 99.21"><defs><style>.cls-1{fill:#034ea1;}.cls-2{fill:#fdfdfe;}.cls-3{fill:#fcfdfd;}</style></defs><title>samsung</title><g id="Layer_2" data-name="Layer 2"><g id="Layer_1-2" data-name="Layer 1"><path class="cls-1" d="M66.47,99.2c-1.54-.06-3.08-.06-4.62-.16-.73-.05-1.47-.07-2.21-.12-2-.13-4-.3-5.92-.46-1.4-.11-2.79-.2-4.18-.36-2.41-.28-4.81-.61-7.22-.91s-5.07-.75-7.59-1.22c-3.18-.6-6.34-1.32-9.46-2.18a70.71,70.71,0,0,1-12-4.36,30.93,30.93,0,0,1-9.2-6.36A14.32,14.32,0,0,1,.24,75.82c0-.14,0-.34-.24-.32v-4c.3,0,.21-.22.24-.36a17.76,17.76,0,0,1,1.67-4.85A33.22,33.22,0,0,1,8.1,58.12a74.88,74.88,0,0,1,11.48-9.23A164.84,164.84,0,0,1,42.2,36.5a16,16,0,0,1,2.89-1.22,8.26,8.26,0,0,0-2.6,6.17A7.77,7.77,0,0,0,45,47.77a22.43,22.43,0,0,0,3.74,2.69c1.72,1,3.51,1.89,5.18,3a8.69,8.69,0,0,1,2.31,2,3.7,3.7,0,0,1,.22,3.93c-.74,1.2-1.93,1.33-3.19,1.24l-.23,0a2.63,2.63,0,0,1-2.39-2.72c0-.87,0-1.75,0-2.63,0-.29,0-.41-.38-.41q-3.78,0-7.56,0c-.31,0-.4.09-.39.39,0,1,0,1.92,0,2.87.23,3.26,1.72,5.73,4.8,7a17.14,17.14,0,0,0,12.79,0,6.9,6.9,0,0,0,4.4-4.91,15.65,15.65,0,0,0,.34-5.06A7.35,7.35,0,0,0,62,50a18.5,18.5,0,0,0-2.58-1.91c-1.72-1.08-3.56-2-5.32-3A11.52,11.52,0,0,1,51.18,43,3,3,0,0,1,50.61,40a2.35,2.35,0,0,1,2-1.7,2.82,2.82,0,0,1,3.66,3c0,.43,0,.86,0,1.29,0,.25,0,.38.34.38h7c.28,0,.38-.09.37-.37,0-.76,0-1.53,0-2.28a6.85,6.85,0,0,0-5.42-6.72A18.06,18.06,0,0,0,54.31,33a29.26,29.26,0,0,0-4.49.26,12,12,0,0,1,2.22-1A380,380,0,0,1,98.92,16.73q8.61-2.3,17.31-4.26,10.45-2.36,21-4.3c4.42-.81,8.85-1.59,13.3-2.28,3.2-.5,6.39-1,9.59-1.43s6.22-.86,9.33-1.25c2.57-.32,5.15-.59,7.73-.86s5.07-.55,7.62-.78,5.25-.4,7.87-.62c3.46-.3,6.92-.48,10.39-.66,2.44-.13,4.87-.19,7.31-.28h22.8c3.15.08,6.31.28,9.46.48q4.38.29,8.74.75c4.34.47,8.66,1.06,12.95,1.85a100.78,100.78,0,0,1,17.6,4.67,39.94,39.94,0,0,1,12.45,7,15,15,0,0,1,5.4,8.86c0,.12,0,.3.22.26v3.64c-.22-.06-.2.09-.22.23a15.86,15.86,0,0,1-1.88,5.56A33,33,0,0,1,292,41a70.25,70.25,0,0,1-10.44,8.56,155.75,155.75,0,0,1-22.38,12.53,9.62,9.62,0,0,1-2.41,1,2.6,2.6,0,0,1,.25-.31,7.34,7.34,0,0,0,2.2-4.85c.26-3.33.07-6.68.13-10,0-.31-.1-.4-.4-.4h-10.2c-.34,0-.43.1-.42.43,0,1.23,0,2.46,0,3.69,0,.33.09.44.42.43.78,0,1.57,0,2.35,0,.33,0,.42.11.42.43,0,1.56,0,3.13,0,4.69a3.48,3.48,0,0,1-.07.64c-.35,1.51-1.75,2.32-3.68,2.13a2.73,2.73,0,0,1-2.69-2.89q0-7.56,0-15.12c0-2.73,2-3.64,4.26-3.13a2.6,2.6,0,0,1,2.07,2.39,15.07,15.07,0,0,1,.07,2.23c0,.33.09.43.43.43,2.3,0,4.61,0,6.91,0,.36,0,.49-.09.47-.46,0-.72,0-1.44,0-2.17a7.53,7.53,0,0,0-5.45-7.31,17.84,17.84,0,0,0-9.93-.29,8.08,8.08,0,0,0-5.21,3.49,9.38,9.38,0,0,0-1.31,5c0,2.09,0,4.18,0,6.27,0,2.77,0,5.54,0,8.32.1,4.55,2.17,7.18,6.56,8.35a18.58,18.58,0,0,0,8,.22c-.06.27-.32.27-.5.34-8.89,3.78-17.94,7.11-27.13,10.1-12.57,4.09-25.31,7.56-38.19,10.54-7.36,1.7-14.76,3.26-22.19,4.62q-6.27,1.16-12.55,2.2c-3.57.59-7.16,1.13-10.74,1.64-2.82.41-5.64.76-8.46,1.11s-5.88.71-8.83,1q-3.72.4-7.45.73c-2.63.24-5.27.47-7.91.67-2.28.18-4.58.31-6.87.48-1.88.13-3.77.2-5.65.33s-3.75.1-5.62.16Zm42.67-62.08.16,0c0,.15.09.29.12.44q1.18,6.41,2.38,12.82l2.61,14.09c.06.35.17.52.58.51,2.3,0,4.61,0,6.91,0,.36,0,.5-.08.57-.46q2.46-13.32,4.94-26.63c0-.25,0-.57.3-.83,0,.22,0,.37,0,.52l.12,15.7c0,3.7.07,7.39.07,11.08,0,.54.16.63.65.62q3.26,0,6.51,0c.47,0,.65-.08.61-.6-.07-.87-.07-1.75-.09-2.63q-.3-13.65-.58-27.3c0-.4-.1-.52-.52-.52-3.89,0-7.77,0-11.66,0-.36,0-.5.09-.56.46-.21,1.45-.45,2.89-.69,4.34q-1.38,8.58-2.77,17.15a8.15,8.15,0,0,1-.39,1.86c-.08-.28-.13-.44-.16-.61q-1.83-11.34-3.65-22.7c-.06-.41-.21-.5-.59-.5-3.89,0-7.77,0-11.66,0-.43,0-.51.15-.52.54q-.3,15-.64,30c0,.41.09.53.5.52,2.17,0,4.34,0,6.51,0,.58,0,.77-.11.77-.75q0-13,.15-26ZM221.9,58.35a1.22,1.22,0,0,1-.31-.66q-3.41-11.61-6.79-23.22c-.12-.38-.25-.56-.71-.56-3.47,0-7,0-10.42,0-.47,0-.58.13-.58.58q0,14.79,0,29.59c0,.43.09.56.54.55,2.15,0,4.3,0,6.44,0,.55,0,.67-.14.66-.67q-.22-11.94-.39-23.89a1,1,0,0,1,.06-.61,1.05,1.05,0,0,1,.26.56q3.66,12,7.3,24a.65.65,0,0,0,.75.56q4.95,0,9.9,0c.45,0,.59-.1.59-.57q0-14.79,0-29.59c0-.42-.09-.56-.55-.56-2.2,0-4.41,0-6.61,0-.45,0-.56.11-.55.55.15,7.46.27,14.92.4,22.38C221.9,57.3,221.9,57.76,221.9,58.35ZM172.66,46.3h0q0,5,0,10.08c0,.56,0,1.13.06,1.69.26,3.2,1.72,5.58,4.77,6.77a17.43,17.43,0,0,0,10.64.49c4.05-1,6.22-3.64,6.26-7.8.08-7.73,0-15.46.06-23.2,0-.4-.17-.43-.49-.43-2.25,0-4.49,0-6.74,0-.54,0-.63.16-.63.66q0,10.86,0,21.73c0,.47,0,.94,0,1.41a2.72,2.72,0,0,1-2.78,2.6,2.82,2.82,0,0,1-3.22-2.38,12,12,0,0,1-.07-1.46q0-11,0-21.92c0-.52-.13-.64-.65-.63q-3.27,0-6.56,0c-.56,0-.66.18-.65.69C172.67,38.49,172.66,42.39,172.66,46.3ZM69.74,65h8.07c.31,0,.33-.16.37-.4.15-1.08.32-2.16.48-3.24l3.39-22.45c.1-.68.22-1.35.33-2.06a.38.38,0,0,1,.22.4q.68,4.57,1.33,9.15,1.33,9.06,2.66,18.12c0,.37.16.48.54.48,2.5,0,5,0,7.5,0,.12,0,.23,0,.35,0a1.15,1.15,0,0,0,0-.19c-.61-3.29-1.21-6.59-1.82-9.89q-1.87-10.22-3.76-20.42c-.07-.36-.19-.51-.59-.51q-6.42,0-12.83,0c-.36,0-.51.1-.57.46-.23,1.37-.5,2.73-.75,4.09Q72.81,48.41,71,58.36C70.56,60.54,70.16,62.72,69.74,65Zm77.63-10.22c-1.21,0-2.42,0-3.63,0-.35,0-.48.09-.47.46,0,.91,0,1.83,0,2.75a7.59,7.59,0,0,0,5.46,7.2,17.72,17.72,0,0,0,11.22,0A7.25,7.25,0,0,0,165.07,60a12.85,12.85,0,0,0,.36-2.54,9,9,0,0,0-1.12-5.75,11.68,11.68,0,0,0-3.3-3.12c-1.87-1.27-3.92-2.25-5.89-3.35A10.82,10.82,0,0,1,152,43a2.83,2.83,0,0,1,1.45-4.63,2.76,2.76,0,0,1,3.6,2.91c0,.45,0,.9,0,1.35,0,.27.08.38.37.38h7c.28,0,.37-.1.37-.38,0-.74,0-1.48,0-2.23a6.72,6.72,0,0,0-5.31-6.65,18.61,18.61,0,0,0-9.77-.07A7.45,7.45,0,0,0,144,38.59a9.54,9.54,0,0,0-.47,2.59,7.79,7.79,0,0,0,2.44,6.61,18,18,0,0,0,2.51,1.93c1.67,1.08,3.45,2,5.17,3a14,14,0,0,1,2.91,2.05,3.42,3.42,0,0,1,1.16,2c.19,1.45-.2,3.28-2.09,3.66a4.66,4.66,0,0,1-1.86,0,2.6,2.6,0,0,1-2.21-2.63c0-.86,0-1.72,0-2.58,0-.36-.1-.46-.46-.46C149.83,54.74,148.6,54.73,147.37,54.73Z"/><path class="cls-2" d="M109.14,37.12v1.09q-.09,13-.15,26c0,.64-.19.75-.77.75-2.17,0-4.34,0-6.51,0-.41,0-.51-.11-.5-.52q.33-15,.64-30c0-.39.09-.54.52-.54,3.89,0,7.77,0,11.66,0,.38,0,.53.09.59.5q1.81,11.36,3.65,22.7c0,.17.08.33.16.61a8.15,8.15,0,0,0,.39-1.86q1.4-8.56,2.77-17.15c.24-1.45.48-2.89.69-4.34.06-.37.2-.46.56-.46,3.89,0,7.77,0,11.66,0,.42,0,.51.12.52.52q.28,13.65.58,27.3c0,.88,0,1.76.09,2.63,0,.52-.14.61-.61.6q-3.26,0-6.51,0c-.49,0-.65-.08-.65-.62,0-3.69,0-7.38-.07-11.08l-.12-15.7c0-.15,0-.3,0-.52-.3.26-.25.58-.3.83q-2.47,13.32-4.94,26.63c-.07.38-.21.46-.57.46-2.3,0-4.61,0-6.91,0-.41,0-.52-.16-.58-.51L111.8,50.36q-1.2-6.4-2.38-12.82c0-.15-.08-.29-.12-.44Z"/><path class="cls-3" d="M221.9,58.35c0-.59,0-1.05,0-1.51-.13-7.46-.25-14.92-.4-22.38,0-.44.1-.55.55-.55,2.2,0,4.41,0,6.61,0,.46,0,.55.14.55.56q0,14.81,0,29.59c0,.47-.14.57-.59.57q-5,0-9.9,0a.65.65,0,0,1-.75-.56q-3.63-12-7.3-24a1.05,1.05,0,0,0-.26-.56,1,1,0,0,0-.06.61q.18,11.94.39,23.89c0,.53-.11.68-.66.67-2.14,0-4.29,0-6.44,0-.45,0-.54-.12-.54-.55q0-14.79,0-29.59c0-.45.11-.58.58-.58,3.47,0,7,0,10.42,0,.46,0,.59.18.71.56q3.38,11.61,6.79,23.22A1.22,1.22,0,0,0,221.9,58.35Z"/><path class="cls-3" d="M172.66,46.3c0-3.91,0-7.81,0-11.72,0-.51.09-.7.65-.69q3.28.06,6.56,0c.52,0,.65.11.65.63q0,11,0,21.92a12,12,0,0,0,.07,1.46,2.82,2.82,0,0,0,3.22,2.38,2.72,2.72,0,0,0,2.78-2.6c0-.47,0-.94,0-1.41q0-10.86,0-21.73c0-.5.09-.66.63-.66,2.25,0,4.49,0,6.74,0,.32,0,.49,0,.49.43,0,7.74,0,15.47-.06,23.2,0,4.16-2.21,6.81-6.26,7.8a17.43,17.43,0,0,1-10.64-.49c-3.05-1.19-4.51-3.57-4.77-6.77,0-.56-.06-1.13-.06-1.69q0-5,0-10.08Z"/><path class="cls-2" d="M256.62,63.18a11.73,11.73,0,0,1-4.79,2.07,18.58,18.58,0,0,1-8-.22c-4.39-1.17-6.46-3.8-6.56-8.35-.05-2.78,0-5.55,0-8.32,0-2.09,0-4.18,0-6.27a9.38,9.38,0,0,1,1.31-5,8.08,8.08,0,0,1,5.21-3.49,17.84,17.84,0,0,1,9.93.29,7.53,7.53,0,0,1,5.45,7.31c0,.73,0,1.45,0,2.17,0,.37-.11.46-.47.46-2.3,0-4.61,0-6.91,0-.34,0-.44-.1-.43-.43a15.07,15.07,0,0,0-.07-2.23,2.6,2.6,0,0,0-2.07-2.39c-2.27-.51-4.24.4-4.26,3.13q0,7.56,0,15.12a2.73,2.73,0,0,0,2.69,2.89c1.93.19,3.33-.62,3.68-2.13a3.48,3.48,0,0,0,.07-.64c0-1.56,0-3.13,0-4.69,0-.32-.09-.44-.42-.43-.78,0-1.57,0-2.35,0-.33,0-.43-.1-.42-.43,0-1.23,0-2.46,0-3.69,0-.33.08-.43.42-.43h10.2c.3,0,.4.09.4.4-.06,3.33.13,6.68-.13,10a7.34,7.34,0,0,1-2.2,4.85,2.6,2.6,0,0,0-.25.31h0Z"/><path class="cls-2" d="M45.09,35.28a11.86,11.86,0,0,1,4.46-2c.11,0,.21,0,.27-.09h0A29.26,29.26,0,0,1,54.31,33a18.06,18.06,0,0,1,4.21.61,6.85,6.85,0,0,1,5.42,6.72c.05.75,0,1.52,0,2.28,0,.28-.09.37-.37.37h-7c-.3,0-.35-.13-.34-.38,0-.43,0-.86,0-1.29a2.82,2.82,0,0,0-3.66-3,2.35,2.35,0,0,0-2,1.7A3,3,0,0,0,51.18,43a11.52,11.52,0,0,0,2.94,2.1c1.76,1,3.6,1.87,5.32,3A18.5,18.5,0,0,1,62,50a7.35,7.35,0,0,1,2.63,5.06,15.65,15.65,0,0,1-.34,5.06A6.9,6.9,0,0,1,59.91,65a17.14,17.14,0,0,1-12.79,0c-3.08-1.23-4.57-3.7-4.8-7-.06-1,0-1.91,0-2.87,0-.3.08-.39.39-.39q3.78,0,7.56,0c.33,0,.39.12.38.41,0,.88,0,1.76,0,2.63A2.63,2.63,0,0,0,53,60.52l.23,0c1.26.09,2.45,0,3.19-1.24a3.7,3.7,0,0,0-.22-3.93,8.69,8.69,0,0,0-2.31-2c-1.67-1.07-3.46-2-5.18-3A22.43,22.43,0,0,1,45,47.77a7.77,7.77,0,0,1-2.49-6.32A8.26,8.26,0,0,1,45.09,35.28Z"/><path class="cls-2" d="M69.74,65c.42-2.23.82-4.41,1.23-6.59q1.84-9.95,3.68-19.9c.25-1.36.52-2.72.75-4.09.06-.36.21-.46.57-.46q6.41,0,12.83,0c.4,0,.52.15.59.51q1.88,10.21,3.76,20.42c.61,3.3,1.21,6.6,1.82,9.89a1.15,1.15,0,0,1,0,.19c-.12,0-.23,0-.35,0-2.5,0-5,0-7.5,0-.38,0-.49-.11-.54-.48q-1.32-9.06-2.66-18.12-.66-4.57-1.33-9.15a.38.38,0,0,0-.22-.4c-.11.71-.23,1.38-.33,2.06L78.66,61.32c-.16,1.08-.33,2.16-.48,3.24,0,.24-.06.4-.37.4Z"/><path class="cls-2" d="M147.37,54.73c1.23,0,2.46,0,3.69,0,.36,0,.47.1.46.46,0,.86,0,1.72,0,2.58a2.6,2.6,0,0,0,2.21,2.63,4.66,4.66,0,0,0,1.86,0c1.89-.38,2.28-2.21,2.09-3.66a3.42,3.42,0,0,0-1.16-2,14,14,0,0,0-2.91-2.05c-1.72-1-3.5-1.89-5.17-3a18,18,0,0,1-2.51-1.93,7.79,7.79,0,0,1-2.44-6.61,9.54,9.54,0,0,1,.47-2.59,7.45,7.45,0,0,1,5.68-4.89,18.61,18.61,0,0,1,9.77.07,6.72,6.72,0,0,1,5.31,6.65c0,.75,0,1.49,0,2.23,0,.28-.09.38-.37.38h-7c-.29,0-.38-.11-.37-.38,0-.45,0-.9,0-1.35a2.76,2.76,0,0,0-3.6-2.91A2.83,2.83,0,0,0,152,43a10.82,10.82,0,0,0,3.12,2.24c2,1.1,4,2.08,5.89,3.35a11.68,11.68,0,0,1,3.3,3.12,9,9,0,0,1,1.12,5.75,12.85,12.85,0,0,1-.36,2.54A7.25,7.25,0,0,1,160,65.16a17.72,17.72,0,0,1-11.22,0,7.59,7.59,0,0,1-5.46-7.2c-.05-.92,0-1.84,0-2.75,0-.37.12-.46.47-.46C145,54.74,146.16,54.73,147.37,54.73Z"/><path class="cls-1" d="M49.82,33.21c-.06.12-.16.1-.27.09A.21.21,0,0,1,49.82,33.21Z"/><path class="cls-1" d="M256.62,63.18l.14-.1C256.76,63.18,256.7,63.2,256.62,63.18Z"/></g></g></svg>