<svg xmlns="http://www.w3.org/2000/svg" xmlns:xlink="http://www.w3.org/1999/xlink" width="32" height="32" viewBox="0 0 32 32">
    <defs>
        <radialGradient id="8rafioqcrb" cx="50%" cy="50%" r="88.781%" fx="50%" fy="50%" gradientTransform="matrix(0 1 -.625 0 .813 0)">
            <stop offset="0%" stop-color="#004D9B"/>
            <stop offset="100%" stop-color="#002462"/>
        </radialGradient>
        <linearGradient id="raveiaje3d" x1="9.76%" x2="70.76%" y1="-35.349%" y2="100%">
            <stop offset="0%" stop-color="#33C3F5"/>
            <stop offset="100%" stop-color="#2241EC"/>
            <stop offset="100%" stop-color="#1D3CE7"/>
        </linearGradient>
        <path id="eiypcimsma" d="M4.662 0h22.676c1.621 0 2.21.169 2.802.486.592.317 1.057.782 1.374 1.374.317.593.486 1.18.486 2.802v10.676c0 1.621-.169 2.21-.486 2.802-.317.592-.782 1.057-1.374 1.374-.593.317-1.18.486-2.802.486H4.662c-1.621 0-2.21-.169-2.802-.486-.592-.317-1.057-.782-1.374-1.374C.169 17.547 0 16.96 0 15.338V4.662C0 3.04.169 2.452.486 1.86.803 1.268 1.268.803 1.86.486 2.453.169 3.04 0 4.662 0z"/>
    </defs>
    <g fill="none" fill-rule="evenodd">
        <g>
            <g>
                <g transform="translate(-672 -50) translate(672 50) translate(0 6)">
                    <mask id="wo514vj74c" fill="#fff">
                        <use xlink:href="#eiypcimsma"/>
                    </mask>
                    <use fill="url(#8rafioqcrb)" xlink:href="#eiypcimsma"/>
                    <path fill="#FFF" d="M13.904 4.25c-.976 0-1.767.794-1.767 1.775 0 .98.791 1.775 1.767 1.775.975 0 1.767-.796 1.767-1.775 0-.98-.792-1.775-1.767-1.775m6.22 4.217c.386 0 .752.292.752.724 0 .261-.162.473-.497.805l-1.919 1.871 2.345 2.423c.244.243.426.464.426.765 0 .474-.375.695-.791.695-.294 0-.487-.171-.772-.473L17.04 12.46v2.565c0 .393-.304.725-.76.725-.438 0-.762-.282-.762-.725V9.211c0-.412.304-.744.761-.744.437 0 .761.282.761.744v2.173l2.498-2.635c.11-.122.303-.282.588-.282zm-8.198 0c.436 0 .69.345.69.7 0 .345-.204.7-.69.7h-1.107v5.092c0 .508-.324.791-.761.791s-.762-.283-.762-.79V9.866H8.19c-.488 0-.69-.355-.69-.7 0-.355.254-.7.69-.7h3.736zm10.842 0c.437 0 .761.282.761.785v5.714c0 .502-.324.784-.76.784-.437 0-.762-.282-.762-.784V9.252c0-.503.325-.785.761-.785zm-8.781 0c.437 0 .762.282.762.785v5.714c0 .502-.325.784-.762.784-.436 0-.76-.282-.76-.784V9.252c0-.503.324-.785.76-.785zm8.745-4.217c.977 0 1.768.794 1.768 1.775 0 .98-.791 1.775-1.768 1.775-.975 0-1.767-.796-1.767-1.775 0-.98.792-1.775 1.767-1.775zm-7.528 1.511c.035.12.054.244.054.373 0 .75-.606 1.358-1.354 1.358-.749 0-1.353-.609-1.353-1.358 0-.13.018-.253.053-.373h2.6zm8.828 0h-2.6c-.034.12-.053.244-.053.373 0 .75.606 1.358 1.353 1.358.749 0 1.354-.609 1.354-1.358 0-.13-.02-.253-.054-.373z" mask="url(#wo514vj74c)"/>
                    <path fill="url(#raveiaje3d)" fill-rule="nonzero" d="M16-3.75C8.406-3.75 2.25 2.406 2.25 10S8.406 23.75 16 23.75c6.352 0 11.834-4.343 13.345-10.424.268-1.08.405-2.195.405-3.326 0-7.594-6.156-13.75-13.75-13.75zm0 2.845c6.023 0 10.905 4.882 10.905 10.905 0 .9-.108 1.784-.321 2.64-1.198 4.82-5.546 8.265-10.584 8.265-6.023 0-10.905-4.882-10.905-10.905S9.977-.905 16-.905z" mask="url(#wo514vj74c)"/>
                </g>
            </g>
        </g>
    </g>
</svg>
