<svg xmlns="http://www.w3.org/2000/svg" width="20" height="20" viewBox="0 0 20 20">
    <g fill="none" fill-rule="evenodd">
        <g>
            <g>
                <path d="M0 0H20V20H0z" transform="translate(-127 -320) translate(127 320)"/>
                <path fill="#0D5CB6" d="M8.586 1.449c.708-.876 2.044-.877 2.753 0l.778.963c.14.173.37.247.584.19l1.196-.322c1.087-.293 2.169.492 2.227 1.618l.063 1.236c.012.222.153.417.361.497l1.156.443c1.052.402 1.466 1.672.851 2.617L17.88 9.73c-.122.187-.122.428 0 .614l.675 1.038c.614.943.203 2.214-.85 2.618l-1.157.442c-.207.08-.35.275-.36.497l-.064 1.236c-.058 1.125-1.138 1.911-2.227 1.618l-1.196-.321c-.215-.058-.444.017-.584.19l-.778.962c-.708.876-2.043.878-2.752 0l-.779-.962c-.14-.173-.369-.248-.584-.19l-1.195.321c-1.087.293-2.17-.491-2.227-1.618l-.064-1.236c-.011-.222-.153-.417-.36-.497L2.22 14c-1.051-.403-1.466-1.673-.85-2.618l.675-1.038c.12-.186.12-.427 0-.614L1.37 8.691c-.614-.943-.202-2.214.85-2.617l1.157-.443c.208-.08.35-.275.361-.497l.064-1.236c.058-1.124 1.137-1.91 2.227-1.618l1.195.321c.215.058.444-.016.584-.19zm1.814.759c-.225-.279-.65-.28-.875 0l-.778.962c-.44.544-1.16.779-1.836.597l-1.196-.322c-.346-.092-.69.157-.708.515l-.064 1.236c-.036.699-.481 1.312-1.134 1.562l-1.156.443c-.335.128-.467.532-.271.832l.675 1.038c.382.586.382 1.344 0 1.93l-.675 1.038c-.195.3-.065.704.27.833l1.157.442c.653.25 1.098.863 1.134 1.562l.064 1.236c.019.358.362.608.708.515l1.196-.322c.152-.04.306-.06.459-.06.526 0 1.036.235 1.377.657l.778.963c.225.278.65.279.875 0l.779-.963c.44-.544 1.16-.778 1.835-.597l1.196.322c.346.093.69-.156.708-.515l.064-1.236c.036-.699.481-1.312 1.135-1.562l1.156-.442c.334-.128.466-.532.27-.833l-.675-1.038c-.381-.586-.381-1.344 0-1.93l.675-1.038c.196-.3.065-.704-.27-.832l-1.156-.443c-.654-.25-1.099-.863-1.135-1.562l-.064-1.236c-.018-.358-.361-.608-.708-.515l-1.195.322c-.676.182-1.396-.053-1.836-.597zm2.577 4.753c.21.21.233.535.07.77l-.07.083-5.632 5.633c-.117.117-.272.176-.426.176-.155 0-.31-.059-.427-.176-.21-.21-.233-.535-.07-.77l.07-.084 5.632-5.632c.236-.236.618-.236.853 0zm-1.03 4.249c.666 0 1.207.54 1.207 1.206 0 .666-.541 1.207-1.207 1.207-.665 0-1.207-.541-1.207-1.207 0-.665.542-1.206 1.207-1.206zM7.522 6.784c.666 0 1.207.542 1.207 1.207 0 .666-.541 1.207-1.207 1.207-.665 0-1.207-.541-1.207-1.207 0-.665.542-1.207 1.207-1.207z" transform="translate(-127 -320) translate(127 320)"/>
            </g>
        </g>
    </g>
</svg>
