<svg xmlns="http://www.w3.org/2000/svg" viewBox="0 0 19.58 24.27"><defs><style>.cls-1{fill:#0a0a0a;}</style></defs><title>doi song</title><g id="Layer_2" data-name="Layer 2"><g id="Layer_1-2" data-name="Layer 1"><path class="cls-1" d="M14.74,24.27a1.89,1.89,0,0,1-1.86-1.66l-.39-2.9c-.05-.4-.11-.79-.15-1.19a.42.42,0,0,0-.36-.4l-1.57-.36-.4-.1c-.13,0-.4-.1-.4-.1H9.53a.29.29,0,0,0-.29.24l-.18.6c-.17.59-.34,1.18-.53,1.76a2.55,2.55,0,0,1-1.64,1.71c-1.47.51-2.94,1-4.42,1.49a2.16,2.16,0,0,1-.61.1,1.92,1.92,0,0,1-1.51-.79A1.57,1.57,0,0,1,0,21.76a1.89,1.89,0,0,1,1-1.82,2.06,2.06,0,0,1,.34-.16L4.7,18.65a.51.51,0,0,0,.37-.4c.21-.9.43-1.8.66-2.69a1.38,1.38,0,0,0,0-.64,3.62,3.62,0,0,1,.1-1.32c.16-.72.32-1.42.49-2.13l.15-.68c.08-.32.15-.63.23-.95a.29.29,0,0,0,0-.29L6.6,9.46l-.19,0-.89,0h-.1a.36.36,0,0,0-.31.16L4,11.16l-.22.3a8,8,0,0,0-.49.7,2.79,2.79,0,0,1-.65.68L2.5,13a1.08,1.08,0,0,1-.75.28,2.13,2.13,0,0,1-.53-.08A1.56,1.56,0,0,1,.1,11.49,2.71,2.71,0,0,1,.59,10.4l1.6-2.22.3-.43.59-.82a1.76,1.76,0,0,1,1.24-.69L5.59,6.1l2-.22.2,0,1-.11H8.8a1.87,1.87,0,0,1,.4,0,1.5,1.5,0,0,0,.29.06l.23,0A1.55,1.55,0,0,0,10,6a4,4,0,0,1,1.13.34,2,2,0,0,1,1,.87,3.35,3.35,0,0,0,.49.62l.19.2,1.71,2a.34.34,0,0,0,.27.13A.65.65,0,0,0,15,10l.7-.24c.62-.21,1.25-.43,1.88-.62A1.41,1.41,0,0,1,18,9.11a1.61,1.61,0,0,1,1.09.47,1.54,1.54,0,0,1,.48,1.18,1.62,1.62,0,0,1-1.06,1.48L16.23,13l-1.37.46a1.74,1.74,0,0,1-.5.08,1.58,1.58,0,0,1-.94-.33,4.77,4.77,0,0,1-.68-.67c-.13-.14-.25-.28-.38-.41s-.38-.43-.38-.43l-.12.39-.19,1.4a.28.28,0,0,0,.2.32l.9.38,2,.82a1.79,1.79,0,0,1,1.13,1.51c.07.56.15,1.13.23,1.69s.16,1.1.23,1.65c.05.38.1.77.16,1.15s.1.66.14,1a1.83,1.83,0,0,1-.09.68l0,.21A1.75,1.75,0,0,1,15.75,24a1.39,1.39,0,0,1-.59.25A2,2,0,0,1,14.74,24.27ZM7.44,8.37a.56.56,0,0,1,.31.09c.22.15.27.35.19.7-.16.67-.31,1.35-.47,2l-.69,3a1.62,1.62,0,0,0,1.13,1.91l1.51.35,1.22.29,2.18.5a.56.56,0,0,1,.48.52c.12.9.25,1.81.36,2.71l.06.44c.07.55.14,1.09.23,1.63a.79.79,0,0,0,.82.69h.1a.83.83,0,0,0,.7-.84,4.9,4.9,0,0,0-.07-.67c-.1-.58-.18-1.16-.25-1.75-.1-.8-.22-1.61-.33-2.42l-.13-.94a.66.66,0,0,0-.36-.54l-.22-.1L11,14.6c-.25-.1-.39-.19-.45-.38a1,1,0,0,1,0-.52l.53-3.61c.07-.5.15-1,.21-1.5l0-.13a.89.89,0,0,0,0-.6,1,1,0,0,0-.83-.76L9,6.83l-.19,0h-.1l-.88.1-3.32.36a.8.8,0,0,0-.61.36L2.34,9.77,1.23,11.34a.52.52,0,0,0-.08.4.55.55,0,0,0,.25.36.49.49,0,0,0,.28.09A.57.57,0,0,0,2.14,12L4.53,8.63a.41.41,0,0,1,.34-.21h.35Zm-.7,8.29c-.2,0-.25.2-.28.31L6,19a.61.61,0,0,1-.45.5L3,20.32l-1.29.43a1.09,1.09,0,0,0-.35.19.78.78,0,0,0-.27.92.81.81,0,0,0,.75.54,2.19,2.19,0,0,0,.44-.08l2.19-.74c.25-.1.52-.18.8-.27s.92-.3,1.38-.5a1.49,1.49,0,0,0,.84-.94c.1-.31.2-.63.29-.95,0,0,.34-1.12.41-1.33a.29.29,0,0,0,0-.27l0-.09L8,17.2a.8.8,0,0,1-.21-.08.72.72,0,0,0-.2-.09A3.33,3.33,0,0,1,7,16.76.46.46,0,0,0,6.74,16.66Zm5.48-7a4.85,4.85,0,0,1-.08.55.3.3,0,0,0,.11.3l.33.34,1.35,1.45a.62.62,0,0,0,.46.21.77.77,0,0,0,.25,0l3.45-1.16.14-.06a.56.56,0,0,0,.25-.72.52.52,0,0,0-.5-.33.85.85,0,0,0-.26.05l-2.9,1-.22.06h0a.48.48,0,0,1-.36-.11l-.42-.47L12.3,9Z"/><path class="cls-1" d="M11.29,5.38A2.79,2.79,0,0,1,8.7,3.55a2.68,2.68,0,0,1,.18-2A2.67,2.67,0,0,1,10.41.13,2.45,2.45,0,0,1,11.22,0a2.75,2.75,0,0,1,2.6,1.83,2.73,2.73,0,0,1-.18,2.11,2.52,2.52,0,0,1-1.51,1.29A2.44,2.44,0,0,1,11.29,5.38Zm0-4.33a1.58,1.58,0,0,0-.61.12,1.61,1.61,0,0,0-.9.91,1.66,1.66,0,0,0,0,1.33,1.64,1.64,0,0,0,1.47.92h0a1.64,1.64,0,1,0,0-3.28Z"/></g></g></svg>