<svg xmlns="http://www.w3.org/2000/svg" viewBox="0 0 35.65 20"><defs><style>.cls-1{fill:#0a0a0a;}.cls-2{fill:none;stroke:#0a0a0a;stroke-miterlimit:10;stroke-width:0.97px;}</style></defs><title>dong ho</title><g id="Layer_2" data-name="Layer 2"><g id="Layer_1-2" data-name="Layer 1"><path class="cls-1" d="M9.16,5c.3-.41.59-.83.91-1.23a10,10,0,0,1,16.31.93.69.69,0,0,0,.26.3.61.61,0,0,0,.05.18,10.49,10.49,0,0,1,1.08,3.24,10.24,10.24,0,0,1-.43,4.85c-.2.58-.5,1.11-.7,1.69-.31.41-.6.83-.91,1.23a10,10,0,0,1-16.32-.92c-.07-.12-.12-.25-.25-.31a1.72,1.72,0,0,0-.07-.21A10.18,10.18,0,0,1,8,11.2a10,10,0,0,1,.49-4.53C8.67,6.11,9,5.59,9.16,5Zm1.54,5.29c-.35,0-.7,0-1,0s-.39.07-.36.38a8.63,8.63,0,0,0,3.76,6.48c.21.14.29.11.4-.1.37-.66.77-1.3,1.12-2,.14-.27.26-.18.45-.09s.22.22.11.42c-.39.63-.74,1.28-1.13,1.92-.12.2-.13.31.12.42a8.58,8.58,0,0,0,7.56,0c.23-.1.22-.2.1-.4-.39-.64-.75-1.31-1.14-1.95-.14-.22,0-.3.13-.4s.29-.17.42.07c.37.67.77,1.33,1.14,2,.11.19.18.23.37.09a8.61,8.61,0,0,0,3.79-6.54c0-.25-.05-.34-.31-.33-.71,0-1.43,0-2.15,0-.22,0-.38,0-.38-.3s.13-.33.37-.32c.7,0,1.41,0,2.11,0,.32,0,.38-.09.35-.39a8.66,8.66,0,0,0-3.76-6.44c-.23-.16-.31-.09-.43.12-.35.64-.73,1.26-1.08,1.9-.13.24-.23.22-.44.11s-.23-.25-.11-.45c.37-.61.71-1.24,1.08-1.85.14-.22.15-.33-.12-.45a8.6,8.6,0,0,0-7.49,0c-.21.09-.26.17-.13.39.39.63.74,1.29,1.13,1.92.14.24,0,.32-.14.44s-.3.11-.42-.11c-.35-.65-.74-1.28-1.1-1.93-.11-.2-.19-.25-.4-.1A8.57,8.57,0,0,0,9.3,9.37c0,.24,0,.34.3.33.74,0,1.48,0,2.22,0,.23,0,.31.06.31.3s-.06.34-.32.32S11.07,10.31,10.7,10.31Z"/><path class="cls-2" d="M25.64,15.2c.22-.59.53-1.15.73-1.76a10.51,10.51,0,0,0,.45-5.07A10.84,10.84,0,0,0,25.69,5a1.21,1.21,0,0,1-.05-.18l5,.7,2.16.31a4.8,4.8,0,0,1,1.68.39c.47.26.53.89.59,1.36.15,1.27,0,2.5.08,3.77a3.81,3.81,0,0,1-.27,1.84c-.53,1.05-1.9,1-2.9,1.14l-2.13.3-4.11.59A.4.4,0,0,1,25.64,15.2Z"/><path class="cls-2" d="M10.05,4.8c-.21.58-.51,1.13-.72,1.72A10.58,10.58,0,0,0,10,15a1.72,1.72,0,0,1,.07.21l-6.72-.94-1.25-.18A1.85,1.85,0,0,1,.56,12.62a7.16,7.16,0,0,1,0-1.85c0-.6,0-1.21,0-1.81,0-.8-.15-1.71.45-2.35A2.27,2.27,0,0,1,1.8,6a5.94,5.94,0,0,1,.93-.13Z"/><path class="cls-1" d="M19.75,8.44a7,7,0,0,1-.93,1,.37.37,0,0,0-.12.4.83.83,0,0,1-1.44.75.6.6,0,0,0-.46-.22l-2.9-.24c-.09,0-.2,0-.29-.06s.16-.09.25-.1l2.89-.24a.66.66,0,0,0,.53-.24.73.73,0,0,1,.87-.23.49.49,0,0,0,.52-.1A5,5,0,0,1,19.75,8.44Z"/></g></g></svg>