<svg xmlns="http://www.w3.org/2000/svg" viewBox="0 0 20 22.17"><title>sac dep</title><g id="Layer_2" data-name="Layer 2"><g id="Layer_1-2" data-name="Layer 1"><path d="M17.38,6.94a6.34,6.34,0,0,1-3.81,5.48,2.76,2.76,0,0,0-.64.43,1.17,1.17,0,0,0-.42.94c0,1.21,0,2.43,0,3.64a2.57,2.57,0,0,0,.41,1.23,2.33,2.33,0,0,1-.55,3,2.36,2.36,0,0,1-3.48-3.09,2.24,2.24,0,0,0,.37-1.26c0-1.11,0-2.22,0-3.33a1.53,1.53,0,0,0-1-1.51,6.62,6.62,0,0,1-1.69-1.07A6.27,6.27,0,0,1,4.43,5.91,6.27,6.27,0,0,1,8.28.56a6.47,6.47,0,0,1,7.87,2.15A6.83,6.83,0,0,1,17.38,6.94ZM10.74,1A7.28,7.28,0,0,0,10,1.1a5.48,5.48,0,0,0-2,10c.45.28.94.52,1.42.77A1.2,1.2,0,0,1,10,13.06c0,1.6,0,3.2,0,4.8a1.68,1.68,0,0,1-.26.9,3.78,3.78,0,0,0-.26.43,1.44,1.44,0,0,0,.37,1.63,1.47,1.47,0,0,0,1.7.21,1.41,1.41,0,0,0,.75-1.49A4.27,4.27,0,0,0,12,18.7a2,2,0,0,1-.25-.84c0-1.65,0-3.3,0-4.95a1,1,0,0,1,.46-.89,10.08,10.08,0,0,1,1-.54A5.48,5.48,0,0,0,10.74,1Z"/><path d="M17.44,14.81a3.53,3.53,0,0,0,.89,1.75,3.47,3.47,0,0,0,1.67,1,4,4,0,0,0-2.68,2.59,3.52,3.52,0,0,0-2.55-2.57A3.72,3.72,0,0,0,17.44,14.81Zm1,2.71a1.43,1.43,0,0,1-1-1,1.56,1.56,0,0,1-1.06,1,1.49,1.49,0,0,1,1,1A1.66,1.66,0,0,1,18.44,17.52Z"/><path d="M4.43,17.23a3.56,3.56,0,0,0-2.6-2.58,3.47,3.47,0,0,0,1.74-1,3.3,3.3,0,0,0,1-1.7,3.4,3.4,0,0,0,2.56,2.67A4,4,0,0,0,4.43,17.23ZM3.21,14.67a1.72,1.72,0,0,1,1.23,1.19A5,5,0,0,1,5,15.15a5.47,5.47,0,0,1,.74-.52,1.69,1.69,0,0,1-1.19-1.3A1.87,1.87,0,0,1,3.21,14.67Z"/><path d="M1.77,11.39A2.5,2.5,0,0,0,0,9.59,2.6,2.6,0,0,0,1.84,7.73a2.39,2.39,0,0,0,1.8,1.85,2.49,2.49,0,0,0-1.17.67A2.42,2.42,0,0,0,1.77,11.39Z"/><path d="M10.89,2.08A4.36,4.36,0,1,1,6.52,6.44,4.36,4.36,0,0,1,10.89,2.08Zm0,8.05a3.7,3.7,0,1,0-3.7-3.7A3.7,3.7,0,0,0,10.88,10.13Z"/><path d="M9.85,9l3.63-3.36a2.39,2.39,0,0,1,.19,1.14s-.05.1-.09.14L11.15,9.2a.33.33,0,0,1-.18.08A2.28,2.28,0,0,1,9.85,9Z"/><path d="M12.75,4.6l.46.5L9.32,8.69,8.86,8.2Z"/></g></g></svg>