<svg xmlns="http://www.w3.org/2000/svg" viewBox="0 0 21.68 19.8"><title>suc khoe</title><g id="Layer_2" data-name="Layer 2"><g id="Layer_1-2" data-name="Layer 1"><path d="M10.84,19.8a.67.67,0,0,1-.46-.24L3.93,13.13,1.88,11.08A6.38,6.38,0,0,1,0,7.21l0-.14V6l.08-.44A6.24,6.24,0,0,1,4.16.48,6.6,6.6,0,0,1,6.58,0a6.51,6.51,0,0,1,4,1.48.41.41,0,0,0,.26.11.44.44,0,0,0,.25-.11A6.28,6.28,0,0,1,14.87,0h.33a6.48,6.48,0,0,1,6.35,5.23l.13.68V7.12l-.09.41a8.3,8.3,0,0,1-.22,1,6,6,0,0,1-1.21,2.21.52.52,0,0,1-.42.22l-.15,0a.5.5,0,0,1-.39-.41.54.54,0,0,1,.15-.52,5.49,5.49,0,0,0,1.18-2.6,5.41,5.41,0,0,0-4.34-6.16,6.41,6.41,0,0,0-1.06-.09A5.33,5.33,0,0,0,11.3,2.75a.67.67,0,0,1-.46.24.69.69,0,0,1-.46-.24A5.54,5.54,0,0,0,6.47,1.12,5.33,5.33,0,0,0,2.08,3.4a5.38,5.38,0,0,0,.55,6.89q2,2,4,4l4,3.94.27.25.85-.87c.21-.22.43-.43.65-.64a.6.6,0,0,1,.42-.19.52.52,0,0,1,.37.16.54.54,0,0,1,0,.8L11.47,19.4l-.16.16A.71.71,0,0,1,10.84,19.8Z"/><path d="M15.45,17.52c-.26,0-.33-.07-.33-.33V14.94H12.83c-.21,0-.28-.07-.28-.28V12.85c0-.21.08-.28.28-.29h2.29V10.27c0-.2.08-.27.27-.27h1.83c.21,0,.28.06.28.28v2.28h2.26c.24,0,.31.07.31.32,0,.58,0,1.17,0,1.75,0,.25-.06.31-.32.31H17.5v2.2c0,.33-.05.38-.38.38H15.45Z"/></g></g></svg>