<svg xmlns="http://www.w3.org/2000/svg" viewBox="0 0 19.99 19.96"><defs><style>.cls-1{fill:#0a0a0a;}</style></defs><title>thiet bi dien tu</title><g id="Layer_2" data-name="Layer 2"><g id="Layer_1-2" data-name="Layer 1"><polygon class="cls-1" points="19.42 14.76 19.35 14.74 19.32 14.71 19.26 14.54 19.4 14.53 19.44 14.53 19.51 14.55 19.53 14.66 19.46 14.76 19.42 14.76"/><path class="cls-1" d="M6,20a.32.32,0,0,1-.28-.35v-1.1c0-.11,0-.22,0-.34l-1-.06h-2c-.48,0-.67-.2-.67-.68V14.31a6.27,6.27,0,0,0-.84,0H.37A.32.32,0,0,1,0,14a.3.3,0,0,1,.08-.24.36.36,0,0,1,.26-.1H1.86c0-.33,0-.62,0-.91l-.72,0H.4c-.34,0-.4-.2-.4-.31a.31.31,0,0,1,.09-.23A.44.44,0,0,1,.41,12H1.85a7.22,7.22,0,0,0,.06-.88,3.35,3.35,0,0,0-.68-.05H.46c-.15,0-.31,0-.4-.15a.3.3,0,0,1,0-.33.34.34,0,0,1,.33-.18H1.91a8.37,8.37,0,0,1,0-.87L1.2,9.5H.41a.38.38,0,0,1-.36-.16A.31.31,0,0,1,0,9a.36.36,0,0,1,.32-.18H1.91c0-.31,0-.61,0-.91H.43a.78.78,0,0,1-.21,0,.32.32,0,0,1,.09-.63H1.89c0-.32,0-.62,0-.92H.38A.34.34,0,0,1,0,6.08a.34.34,0,0,1,0-.28.4.4,0,0,1,.32-.13H1.85c.06-.85.06-1.64.06-2.42V2.57c0-.48.2-.68.68-.68H5.72s0-.06,0-.12V.4C5.7.05,5.93,0,6,0H6c.11,0,.33,0,.34.39V.64c0,.4,0,.8,0,1.21a2.47,2.47,0,0,0,.44,0h.48c0-.46,0-.88,0-1.31V.4c0-.35.23-.39.33-.4h0C7.72,0,8,0,8,.39V1.85a2.19,2.19,0,0,0,.42,0h.47c0-.4,0-.76.05-1.11V.4c0-.3.17-.4.32-.4s.33.05.33.41V.79c0,.35,0,.7,0,1.05a1.78,1.78,0,0,0,.43,0h.49c0-.41,0-.79,0-1.17V.4c0-.34.2-.39.31-.4h0c.11,0,.34,0,.34.41v.3c0,.38,0,.76,0,1.13a1.48,1.48,0,0,0,.44,0h.49c0-.3,0-.59,0-.88V.39c0-.3.17-.37.31-.38h0c.18,0,.34.1.34.38V.65c0,.4,0,.81,0,1.21a2.13,2.13,0,0,0,.42,0h.49c0-.32,0-.6,0-.89V.39c0-.25.1-.37.31-.39h0c.22,0,.34.15.34.38V.62c0,.4,0,.8,0,1.2a12.47,12.47,0,0,0,1.58.07h1.59c.46,0,.66.2.66.66V5.71H19.6a.4.4,0,0,1,.31.12.29.29,0,0,1,.07.24.34.34,0,0,1-.39.3H18.17c0,.32,0,.6,0,.89l.71,0h.74c.34,0,.4.2.4.31a.31.31,0,0,1-.08.23.41.41,0,0,1-.32.12h-1.4a7.47,7.47,0,0,0,0,.92h1.43A.4.4,0,0,1,19.9,9a.3.3,0,0,1,.05.35.33.33,0,0,1-.33.19H18.38l-.23,0a1.43,1.43,0,0,0,0,.25V10c0,.16,0,.31,0,.46l.71,0h.74c.36,0,.4.23.4.32a.27.27,0,0,1-.08.23.44.44,0,0,1-.32.11h-1.4c0,.33,0,.61-.05.9l.67,0h.75c.28,0,.43.11.43.33a.29.29,0,0,1-.08.22.46.46,0,0,1-.36.11H18.17c0,.33,0,.63,0,.92h1.58l.12,0,.12.1,0,.1V14l-.06.17-.1.07-.08.05H18.09c.05.91.05,1.76.05,2.61v.51c0,.49-.2.68-.69.68h-3.1l-.19.09h.12v1.38c0,.35-.23.39-.33.39s-.32-.05-.32-.39v-.3c0-.38,0-.75,0-1.12a2.19,2.19,0,0,0-.42,0h-.46a6.35,6.35,0,0,0-.06,1v.36c0,.14,0,.45-.32.45s-.34-.33-.34-.44v-.36c0-.34,0-.67,0-1a1.78,1.78,0,0,0-.43-.05h-.48a7.68,7.68,0,0,0,0,.82v.65c0,.24-.11.37-.31.38h0a.3.3,0,0,1-.26-.11.46.46,0,0,1-.08-.27v-.26c0-.39,0-.79,0-1.18l-.42,0H9.54c0,.43,0,.81,0,1.19v.26c0,.35-.21.4-.33.4s-.33-.08-.33-.41V18.16a1.48,1.48,0,0,0-.44-.05H7.94c0,.44,0,.86,0,1.28v.18c0,.34-.2.39-.32.39s-.33,0-.33-.39V18.15a2.22,2.22,0,0,0-.43,0H6.38a9.88,9.88,0,0,0,0,1.19v.23a.65.65,0,0,1,0,.2A.3.3,0,0,1,6,20ZM2.65,2.55H2.57V12c0,1.79,0,3.59,0,5.38l.08.08H17.42l.06-4.3V8.91c0-1,0-1.93,0-2.89V4.53c0-.63,0-1.26,0-1.9l-.09-.08H2.66v0Z"/><polygon class="cls-1" points="19.42 14.76 19.35 14.74 19.32 14.71 19.26 14.54 19.4 14.53 19.44 14.53 19.51 14.55 19.53 14.66 19.46 14.76 19.42 14.76"/><polygon class="cls-1" points="19.66 14.31 19.62 14.27 19.46 14.13 19.9 14.04 19.83 14.24 19.8 14.3 19.71 14.31 19.66 14.31"/><polygon class="cls-1" points="19.5 13.82 19.61 13.68 19.64 13.64 19.71 13.63 19.78 13.63 19.83 13.71 19.92 13.91 19.5 13.82"/><path class="cls-1" d="M14,17a1,1,0,0,1-1-.67c0-.07,0-.08-.11-.08H4.23c-.29,0-.41-.12-.41-.41V12.83c0-.31.1-.41.4-.43a.85.85,0,0,0,.84-.57A.74.74,0,0,0,5,11.2a.87.87,0,0,0-.62-.38c-.49-.06-.54-.11-.54-.59V4a.33.33,0,0,1,.38-.38H8.06c.27,0,.37.09.4.36a.4.4,0,0,0,.33.4l.21,0a.51.51,0,0,0,.4-.17.42.42,0,0,0,.1-.28.34.34,0,0,1,.38-.35h5.49c.38,0,.47.09.47.46v9.51c0,.37-.1.46-.46.46H7.73c-.34,0-.44-.1-.44-.44,0,0,0-2.64,0-3.65,0-.07,0-.08-.07-.1a1.07,1.07,0,0,1-.71-1.18,1.09,1.09,0,0,1,1-.91h0a1.12,1.12,0,0,1,1.1.82A1.07,1.07,0,0,1,8,9.8c-.06,0-.06,0-.06.1v3.4l1.87.06h1.83c0-.68,0-1.32,0-2a1.17,1.17,0,0,1-.82-1.09,1,1,0,0,1,.76-1c.06,0,.06,0,.06-.09V7.93c0-.06,0-.07,0-.09A1,1,0,0,1,11,6.66,1.07,1.07,0,0,1,12,5.76a1.08,1.08,0,0,1,1.06.87,1.06,1.06,0,0,1-.66,1.21c-.07,0-.07,0-.07.1,0,.42,0,.84,0,1.25v.26c0,.3-.08.39-.37.42a.44.44,0,1,0,0,.87c.28,0,.37.13.37.41v.27c0,.63,0,1.25,0,1.87a8.86,8.86,0,0,0,1.33.07h1.46c0-3.06,0-6.07,0-9.08-1,0-2,0-2.95,0H10.17A1.28,1.28,0,0,1,9,5a1.12,1.12,0,0,1-1.14-.75l-1.76,0H4.51l0,4v1.85a1.78,1.78,0,0,1,1.1.79,1.34,1.34,0,0,1,.09,1.17A1.39,1.39,0,0,1,4.56,13c-.09,0-.09,0-.09.11,0,.81,0,1.63,0,2.44l.07.08h8.38c.06,0,.07,0,.09-.07a1.06,1.06,0,0,1,1-.68l.21,0a1.08,1.08,0,0,1,0,2.11A.78.78,0,0,1,14,17Zm0-1.49a.42.42,0,0,0,0,.83.43.43,0,0,0,.3-.13.45.45,0,0,0,.12-.29.44.44,0,0,0-.43-.41ZM7.59,8.4a.43.43,0,0,0-.42.4.4.4,0,0,0,.12.29.41.41,0,1,0,.58-.57.36.36,0,0,0-.28-.12v0Zm4.43-2a.4.4,0,0,0-.4.4.41.41,0,0,0,.4.41h0a.43.43,0,0,0,.41-.41.39.39,0,0,0-.12-.28A.38.38,0,0,0,12,6.44v0Z"/></g></g></svg>