<svg xmlns="http://www.w3.org/2000/svg" viewBox="0 0 19.55 19.57"><defs><style>.cls-1{fill:#0a0a0a;}</style></defs><title>thiet bi dien gia dung</title><g id="Layer_2" data-name="Layer 2"><g id="Layer_1-2" data-name="Layer 1"><path class="cls-1" d="M9.73,19.57a9.23,9.23,0,0,1-3-.5c-.68-.22-.58-.55-.54-.67a.39.39,0,0,1,.44-.3,1.24,1.24,0,0,1,.39.07,10.24,10.24,0,0,0,2.83.43,8.5,8.5,0,0,0,5.51-2.06,8.47,8.47,0,0,0,3.18-6.82,8.78,8.78,0,0,0-6.93-8.55A9,9,0,0,0,9.76,1,8.8,8.8,0,0,0,1.15,7.9a8.63,8.63,0,0,0,.27,4.71,2.27,2.27,0,0,0,2.07,1.66h.19a2.68,2.68,0,0,0,2.05-1.19.69.69,0,0,0,0-.64,3.57,3.57,0,0,1,.78-4.51L8.26,6.2c.25-.25.44-.36.59-.36s.33.11.56.36a2.11,2.11,0,0,1,.26.37,1.91,1.91,0,0,0,.16.27l.15.24.88-.89c.52-.54,1-1,1.46-1.47A1.14,1.14,0,0,1,13,4.39a.63.63,0,0,1,.37.31.7.7,0,0,1-.14.5c-.54.6-1.14,1.2-1.83,1.85a.74.74,0,0,0-.29.54.83.83,0,0,0,.32.58A.9.9,0,0,0,12,8.5a.75.75,0,0,0,.52-.29c.46-.5.95-1,1.43-1.45l.3-.29a.8.8,0,0,1,.5-.29.45.45,0,0,1,.3.15.42.42,0,0,1,.11.29.78.78,0,0,1-.24.54l-1.4,1.41-.81.81.37.4c.15.15.29.29.42.44.31.35.31.59,0,.91L13,11.6c-.57.59-1.17,1.2-1.79,1.75a3.45,3.45,0,0,1-2.29.94,3.82,3.82,0,0,1-1.56-.37,1.27,1.27,0,0,0-.54-.15,1.1,1.1,0,0,0-.79.41,3.48,3.48,0,0,1-2.46,1.06A3.07,3.07,0,0,1,.94,13.78a5.77,5.77,0,0,1-.78-2.16A9.58,9.58,0,0,1,3,2.74,9.23,9.23,0,0,1,9.62,0a8.44,8.44,0,0,1,.87,0,9.66,9.66,0,0,1,8.92,8.15,9.67,9.67,0,0,1-7.82,11.19A9.87,9.87,0,0,1,9.73,19.57ZM8.86,7.21a.6.6,0,0,0-.45.23L7.83,8c-.31.3-.61.61-.91.93a2.19,2.19,0,0,0-.65,1.65A2.46,2.46,0,0,0,7.71,13a2.64,2.64,0,0,0,1.19.29,2.5,2.5,0,0,0,1.64-.63,21.7,21.7,0,0,0,1.6-1.58.69.69,0,0,0,0-.8c-.61-.63-1.23-1.24-1.85-1.86l-1-1A.58.58,0,0,0,8.86,7.21Z"/></g></g></svg>