<svg xmlns="http://www.w3.org/2000/svg" viewBox="0 0 22.21 20"><title>thoi trang me va be</title><g id="Layer_2" data-name="Layer 2"><g id="Layer_1-2" data-name="Layer 1"><path d="M7.77,1.63c.3-.38.58-.73.87-1.08A1.49,1.49,0,0,1,10.78.37,1.75,1.75,0,0,1,11,.66c.23.29.44.59.66.87a.53.53,0,0,1,.09.55c-.38,1.13-.75,2.25-1.12,3.37-.08.24-.18.48-.24.72a.62.62,0,0,0,0,.3c.45,1.17.91,2.35,1.37,3.52.1.25.09.25-.16.34-.08,0-.18.06-.26.11s-.2,0-.25-.11c-.45-1.17-.91-2.33-1.35-3.5-.1-.25-.28-.13-.46-.16.05.24.1.46.14.68.29,1.27.57,2.55.86,3.82,0,.18,0,.27-.18.29a3.68,3.68,0,0,0-.5.1L8.58,6.68H8.15V13H7.41V6.68H7c-.1.43-.2.85-.29,1.28l-1,4.71-.21,1c0,.12-.07.15-.19.12a3,3,0,0,0-.43-.09c-.11,0-.13-.08-.11-.19q.71-3.13,1.4-6.28c0-.16.07-.32.1-.48-.3-.1-.37-.07-.47.2L2.43,15.34c-.49,1.25-1,2.51-1.46,3.76a1,1,0,0,0,0,.16h.45c.63,0,1.25,0,1.87,0,.11,0,.17,0,.19-.15.08-.4.18-.8.27-1.21a1.08,1.08,0,0,1,.06-.2c.21.05.41.08.6.14,0,0,.08.13.07.18-.07.37-.16.74-.24,1.11,0,0,0,.07,0,.13h4V20L8,20H.45c-.38,0-.54-.23-.4-.58,1-2.59,2-5.17,3-7.76l2-5.24a.5.5,0,0,0,0-.27c-.44-1.33-.88-2.67-1.34-4a.61.61,0,0,1,.1-.66c.25-.3.46-.63.71-.93a1.5,1.5,0,0,1,2.33,0Zm0,4.3h1.8a.19.19,0,0,0,.21-.15c.4-1.24.82-2.48,1.23-3.72a.37.37,0,0,0,0-.25c-.18-.25-.36-.51-.56-.75A1.1,1.1,0,0,0,10.07.8.7.7,0,0,0,9.21,1c-.37.44-.72.89-1.08,1.34-.25.3-.47.3-.72,0-.36-.45-.7-.89-1.07-1.33a.74.74,0,0,0-1.22,0c-.19.24-.36.49-.55.72a.3.3,0,0,0,0,.29L5.76,5.76A.2.2,0,0,0,6,5.93Z"/><path d="M18.53,11.48h.58a1.47,1.47,0,0,1,1.48,1.11l1.11,3.76c.15.49.29,1,.43,1.47A1.66,1.66,0,0,1,20.51,20H10.59A1.66,1.66,0,0,1,9,17.8l1.53-5.21A1.49,1.49,0,0,1,12,11.48h.58a3,3,0,0,1,6,0Zm-6,.74h-.46c-.57,0-.78.15-.94.69Q10.42,15.47,9.67,18a.93.93,0,0,0,.94,1.22h9.85A.93.93,0,0,0,21.4,18l-1-3.39c-.18-.58-.35-1.17-.52-1.75a.73.73,0,0,0-.6-.59,6.76,6.76,0,0,0-.78,0v.21c0,.64,0,1.28,0,1.92a.62.62,0,0,1-.12.35,9.51,9.51,0,0,1-.71.71.36.36,0,0,1-.57,0c-.22-.22-.45-.43-.66-.67a.65.65,0,0,1-.15-.36c0-.56,0-1.13,0-1.7v-.44H14.81v.22c0,.63,0,1.27,0,1.9a.62.62,0,0,1-.16.39c-.19.23-.42.44-.63.65a.39.39,0,0,1-.62,0l-.64-.64a.54.54,0,0,1-.17-.41c0-.24,0-.47,0-.71Zm4.86,2.45c.11-.17.31-.33.31-.5,0-.93,0-1.87,0-2.81a2.22,2.22,0,0,0-4.43.13c0,.83,0,1.67,0,2.5a.76.76,0,0,0,.37.65.8.8,0,0,0,.39-.73c0-.81,0-1.62,0-2.42a1.41,1.41,0,0,1,.27-.85,1.48,1.48,0,0,1,2.7.85c0,.8,0,1.61,0,2.42A.82.82,0,0,0,17.44,14.67Zm-1.17-3.2a.72.72,0,0,0-.74-.73.7.7,0,0,0-.7.73Z"/><path d="M7.41,13.71h.72v4.43H7.41Z"/><path d="M4.45,14.55l.6.13a.22.22,0,0,1,.09.14,5.47,5.47,0,0,1-.16.7s-.08.09-.12.08a2.77,2.77,0,0,1-.5-.1.15.15,0,0,1-.09-.14C4.32,15.1,4.38,14.84,4.45,14.55Z"/></g></g></svg>