<svg xmlns="http://www.w3.org/2000/svg" viewBox="0 0 12.21 20"><defs><style>.cls-1{fill:#0a0a0a;}</style></defs><title>thuc pham bo sung</title><g id="Layer_2" data-name="Layer 2"><g id="Layer_1-2" data-name="Layer 1"><path class="cls-1" d="M5.68,20c-.95,0-1.89,0-2.83-.09h-.1a9.25,9.25,0,0,1-1.94-.24,2.67,2.67,0,0,1-.54-.19A.46.46,0,0,1,0,19q0-5.7,0-11.4a1.15,1.15,0,0,1,.28-.8C.79,6.2,1.29,5.58,1.79,5l.57-.71.08-.06A1.13,1.13,0,0,1,2,3.4,3.39,3.39,0,0,1,2,3V1.22A1.17,1.17,0,0,1,3.18,0H9.07a1.14,1.14,0,0,1,1.19,1.19v2a1.16,1.16,0,0,1-.44,1l.49.66.46.57,1.35,1.67a.47.47,0,0,1,.08.26c0,2.3,0,11.77,0,11.77a.36.36,0,0,1-.25.38,5,5,0,0,1-1.68.38C9.08,20,7.84,20,6.49,20Zm-5-5.72V19c0,.09,0,.11.11.11l1.19,0,.89.05c.53,0,1.07.07,1.6.08H5.71l2.22,0c.45,0,.85,0,1.26-.05l2.17-.13c.16,0,.16,0,.16-.15V7.74c0-.1,0-.11-.08-.11H.69ZM3.24,4.4a.22.22,0,0,0-.19.1L1.31,6.64,1,7,11.2,6.94l-.07-.07,0,0L9.17,4.49A.22.22,0,0,0,9,4.41ZM3.12.69a.46.46,0,0,0-.48.46V3.26a.47.47,0,0,0,.49.46H9.07a.47.47,0,0,0,.5-.49v-2A.47.47,0,0,0,9.22.71L9,.69h-.1l0,.15v.31a.35.35,0,1,1-.69,0V.65l-1,0,0,.09v.36a.34.34,0,1,1-.68,0V.65l-.27,0H5.74l-.11,0V1.1c0,.25-.13.41-.34.42S5,1.36,5,1.1V.65l-.48,0H4L4,.8v.36a.33.33,0,0,1-.23.33.23.23,0,0,1-.11,0,.35.35,0,0,1-.34-.36c0-.11,0-.22,0-.34V.65l-.1,0v0Z"/><path class="cls-1" d="M6.11,18a4.52,4.52,0,0,1-.05-9,4.52,4.52,0,0,1,3.29,7.66A4.46,4.46,0,0,1,6.14,18ZM3.35,14.55,2.72,15c-.08.06-.09.09,0,.19a3.85,3.85,0,1,0,2.4-5.39A3.83,3.83,0,0,0,2.4,14.41l.11-.12.57-.4a.35.35,0,0,0,.07-.11A3.16,3.16,0,0,1,5.05,12a3.58,3.58,0,0,1,1.24-.2,5.88,5.88,0,0,1,1,.1,5.13,5.13,0,0,0,1,.1l.42,0h0a.35.35,0,0,1,.31.15.31.31,0,0,1,0,.31,2,2,0,0,1-.21.45,3.88,3.88,0,0,1-3.16,2.23l-.38,0a3.07,3.07,0,0,1-1.88-.59l-.05,0v0ZM6.3,12.5a3.48,3.48,0,0,0-.55,0,2.53,2.53,0,0,0-1.87,1.31c0,.08-.07.13-.06.16s.06.06.15.11a3.18,3.18,0,0,0,1.39.34,3,3,0,0,0,.78-.11,3.31,3.31,0,0,0,2-1.65H7.93c-.22,0-.43,0-.64-.09A5.6,5.6,0,0,0,6.3,12.5Z"/></g></g></svg>